<svg version="1.1" id="Layer_1" xmlns="http://www.w3.org/2000/svg" xmlns:xlink="http://www.w3.org/1999/xlink" x="0px" y="0px"
	 width="100%" viewBox="0 0 500 500" enable-background="new 0 0 500 500" xml:space="preserve">
<path fill="#000000" opacity="1.000000" stroke="none" 
	d="
M285.000000,501.000000 
	C190.000015,501.000000 95.500046,501.000000 1.000051,501.000000 
	C1.000034,334.333405 1.000034,167.666794 1.000017,1.000140 
	C167.666565,1.000093 334.333130,1.000093 500.999756,1.000047 
	C500.999847,167.666519 500.999847,334.333038 500.999939,500.999786 
	C429.166656,501.000000 357.333344,501.000000 285.000000,501.000000 
M270.755768,70.424614 
	C270.169800,70.278091 269.583862,70.131569 268.684052,69.650192 
	C268.684052,69.650192 268.231232,69.725014 268.103485,69.752861 
	C268.103485,69.752861 268.114655,69.883125 268.070496,69.137978 
	C266.759125,68.679802 265.447723,68.221619 264.056458,67.886993 
	C264.056458,67.886993 264.182983,67.811913 264.384613,67.085999 
	C253.645081,60.326622 243.447632,61.447231 233.048218,69.323227 
	C231.605484,70.259338 230.162766,71.195457 227.966309,72.224777 
	C223.639404,74.820518 219.312515,77.416252 214.483398,79.998657 
	C213.491150,80.697815 212.498901,81.396973 210.693863,82.370689 
	C209.805481,83.514999 208.917099,84.659302 208.199310,86.240387 
	C208.199310,86.240387 208.661819,86.324577 208.661819,86.324577 
	C208.661819,86.324577 208.971451,85.971703 208.894821,85.241745 
	C206.715607,86.031418 204.536392,86.821098 202.345871,87.573280 
	C202.345871,87.573280 202.320831,87.540543 201.607513,87.763931 
	C166.858322,107.949463 132.045990,128.027679 97.410751,148.406876 
	C90.078934,152.720901 85.631523,159.261856 85.717201,168.436951 
	C85.814880,178.897552 85.143509,189.364151 85.183495,199.826706 
	C85.355316,244.790894 85.655846,289.754608 85.970398,334.718109 
	C85.980377,336.144623 86.653564,337.566498 86.948044,339.726288 
	C89.566612,343.205109 92.185173,346.683899 95.064522,350.780548 
	C96.820572,352.026825 98.489388,353.424316 100.346390,354.495605 
	C115.868858,363.450623 131.413849,372.366852 146.978714,381.248016 
	C152.870193,384.609650 158.831573,387.848755 165.183624,391.682831 
	C190.301636,406.266632 215.311234,421.044037 240.649506,435.234589 
	C244.648621,437.474304 250.133316,437.061401 255.601135,437.888611 
	C257.070374,436.886566 258.539612,435.884552 260.582520,434.860901 
	C261.064331,434.550781 261.546143,434.240692 262.764557,433.936554 
	C264.842468,432.635712 266.920380,431.334839 269.772186,430.082001 
	C270.594757,429.482697 271.417328,428.883392 272.570282,428.436951 
	C279.389496,424.253967 286.208710,420.070953 293.786987,416.089325 
	C301.206299,412.061646 308.727936,408.210052 316.024963,403.971802 
	C334.748871,393.096436 353.373108,382.049408 372.753204,371.019745 
	C382.183502,365.381622 391.613800,359.743530 401.735809,353.989044 
	C410.695312,348.964417 416.881134,342.242249 415.994904,330.134460 
	C415.958313,315.424042 415.921722,300.713623 416.055450,285.078827 
	C416.053528,274.488159 416.120728,263.896454 415.961365,253.308136 
	C415.941650,251.999649 414.715363,250.709335 414.708344,248.952606 
	C414.905975,246.434311 415.103607,243.916031 415.890259,240.724823 
	C415.954773,236.242218 416.088928,231.759338 416.071899,227.277039 
	C415.991730,206.179398 415.870117,185.081924 415.789673,163.257019 
	C413.522736,159.257370 412.188995,153.971481 408.802704,151.514633 
	C400.714081,145.646164 391.657928,141.111267 382.345184,135.777328 
	C379.711975,134.163559 377.107880,132.499893 374.440460,130.944794 
	C363.499420,124.566124 352.539032,118.220551 341.288879,111.461487 
	C341.027802,111.602409 340.766724,111.743332 339.489105,111.148598 
	C339.130890,111.765892 338.772644,112.383179 338.524597,112.739380 
	C338.442566,112.502823 338.290314,112.441559 339.120575,111.849670 
	C338.613892,111.155060 338.107208,110.460442 337.600525,109.765823 
	C337.216827,110.140968 336.833160,110.516113 336.672913,110.184044 
	C335.474487,109.969917 334.276093,109.755783 334.062592,109.053185 
	C333.054443,107.870125 332.046295,106.687073 330.807312,105.086304 
	C330.367340,104.987701 329.927338,104.889091 329.028473,104.262451 
	C328.342865,104.163445 327.657257,104.064438 326.741913,103.781799 
	C326.741913,103.781799 326.477692,103.911034 326.010681,103.359634 
	C316.026306,97.370842 306.041901,91.382050 295.880493,85.026505 
	C295.647430,84.848427 295.388947,84.796272 294.586670,84.347580 
	C288.370178,80.854591 282.153687,77.361595 275.582123,73.335213 
	C274.097382,72.519981 272.612640,71.704750 271.058289,70.894051 
	C271.058289,70.894051 271.053314,70.963631 270.755768,70.424614 
z"/>
<path fill="#DEDCDD" opacity="1.000000" stroke="none" 
	d="
M87.017578,338.990540 
	C86.653564,337.566498 85.980377,336.144623 85.970398,334.718109 
	C85.655846,289.754608 85.355316,244.790894 85.183495,199.826706 
	C85.143509,189.364151 85.814880,178.897552 85.717201,168.436951 
	C85.631523,159.261856 90.078934,152.720901 97.410751,148.406876 
	C132.045990,128.027679 166.858322,107.949463 202.140091,88.179489 
	C202.756042,90.057770 202.839432,91.520493 202.615692,92.977379 
	C201.897018,92.979797 201.485458,92.988045 200.955536,92.776978 
	C200.622757,92.288734 200.349869,92.108269 199.699860,92.145905 
	C196.578873,94.513680 193.776566,96.751785 190.658722,99.037376 
	C189.893921,99.720802 189.444687,100.356750 188.997711,100.996346 
	C189.000000,101.000000 188.992096,100.995117 188.584152,100.994934 
	C184.688065,102.446106 181.032074,103.612984 177.809494,105.514397 
	C176.782959,106.120087 176.108734,109.754822 176.645813,110.153191 
	C178.847244,111.786118 178.384003,116.012955 182.392029,115.935699 
	C182.967484,115.924606 183.588379,118.270752 183.981293,119.789612 
	C177.766373,123.465645 171.758392,126.878067 165.376404,130.144485 
	C161.999588,126.757286 158.996796,123.516075 155.164780,119.379814 
	C150.859390,121.566566 145.092606,124.390999 139.426529,127.404778 
	C134.425201,130.064972 129.430908,132.772919 124.675995,135.836182 
	C123.568558,136.549637 122.691582,138.966461 123.005569,140.292419 
	C124.012703,144.545502 125.627571,148.654678 126.794273,153.101730 
	C123.146713,155.301865 119.712830,157.219650 115.973808,158.942429 
	C113.713669,155.070587 111.758675,151.393768 109.206436,146.593674 
	C106.127701,147.916183 102.563599,149.447205 98.687660,151.123871 
	C91.181793,155.600327 88.716339,162.792709 88.176964,170.365280 
	C87.522812,179.549438 88.060005,188.818451 88.065170,198.506287 
	C88.078384,202.648880 88.108170,206.335922 88.107460,210.348373 
	C88.091316,211.108917 88.105659,211.544037 88.095398,212.318787 
	C88.081909,213.112244 88.093025,213.566071 88.081772,214.477020 
	C88.073753,218.301712 88.088104,221.669281 88.081070,225.358063 
	C88.071320,226.108093 88.082962,226.536911 88.063797,227.405594 
	C88.039032,229.902466 88.045090,231.959473 88.035271,234.481537 
	C88.051056,239.979568 88.082718,245.012512 88.088799,250.510498 
	C88.097000,258.339294 88.130791,265.703064 88.130013,273.529968 
	C88.106979,283.670074 88.118515,293.347046 88.078629,303.487366 
	C88.040710,309.304413 88.054214,314.658112 88.010223,320.462036 
	C87.969864,323.941711 87.986977,326.971161 87.942017,330.438782 
	C87.991493,333.221039 88.103035,335.565155 88.048378,338.125366 
	C87.593971,338.557861 87.305771,338.774200 87.017578,338.990540 
z"/>
<path fill="#DEDCDD" opacity="1.000000" stroke="none" 
	d="
M372.037201,371.071014 
	C353.373108,382.049408 334.748871,393.096436 316.024963,403.971802 
	C308.727936,408.210052 301.206299,412.061646 293.399719,415.674072 
	C293.009796,414.839203 293.007202,414.419586 293.301025,413.977966 
	C294.073608,413.646515 294.549744,413.337067 295.362732,412.985626 
	C297.137360,411.963867 298.575165,410.984131 300.356964,409.997803 
	C301.140747,409.187653 302.140594,407.913544 301.926788,407.659027 
	C300.781738,406.296143 299.322449,405.200165 297.993500,403.988159 
	C295.541473,401.751801 293.104492,399.498901 290.895325,397.031006 
	C308.860596,386.416077 326.591797,376.023071 344.596252,365.786682 
	C343.245239,367.961823 341.621033,369.980286 339.649292,372.057831 
	C331.802185,375.936981 326.231750,381.499237 323.235992,389.518219 
	C322.300507,392.022400 320.696289,394.415192 323.918396,395.724884 
	C326.990601,393.732605 329.604187,391.951752 332.307159,390.318817 
	C333.793030,389.421265 335.429382,388.772827 337.216919,387.898773 
	C337.712433,387.585175 337.902496,387.322388 338.003052,386.998169 
	C337.999969,386.999176 337.998718,387.006104 338.379395,386.997345 
	C346.841217,382.662628 354.922363,378.336670 363.227478,373.748260 
	C366.313385,372.680908 369.175293,371.875946 372.037201,371.071014 
z"/>
<path fill="#8C8E91" opacity="1.000000" stroke="none" 
	d="
M271.127899,70.889526 
	C272.612640,71.704750 274.097382,72.519981 275.706482,73.988937 
	C275.913208,75.416046 275.995544,76.189430 275.821838,77.165710 
	C277.143219,81.499214 278.720581,85.629837 280.522034,90.347206 
	C283.181091,90.832680 284.488800,94.315796 282.435944,99.048737 
	C278.383911,96.822678 274.777252,94.450989 270.941101,92.540054 
	C264.017883,89.091309 256.957428,85.918076 249.960541,82.223953 
	C248.617340,76.511177 247.267883,71.204231 246.226959,65.632362 
	C250.215164,65.754654 253.903702,66.074211 257.571228,66.554276 
	C259.791962,66.844955 261.980164,67.384293 264.182983,67.811905 
	C264.182983,67.811913 264.056458,67.886993 264.051697,68.221039 
	C265.402863,68.997765 266.758759,69.440445 268.114655,69.883125 
	C268.114655,69.883125 268.103485,69.752861 268.026428,70.064758 
	C268.501862,71.047272 269.054352,71.717888 269.606842,72.388519 
	C270.113861,71.888855 270.620880,71.389191 271.127899,70.889526 
z"/>
<path fill="#56595A" opacity="1.000000" stroke="none" 
	d="
M415.301239,241.397736 
	C415.103607,243.916031 414.905975,246.434311 414.377441,249.692352 
	C414.011902,258.608582 413.977264,266.785095 413.677582,274.759705 
	C410.244232,267.509369 407.219543,260.390900 403.837097,253.446716 
	C402.479645,250.659943 403.243500,245.985611 398.068970,245.542847 
	C398.047516,235.727798 398.083435,226.378845 398.487366,217.026489 
	C404.367584,218.704971 405.132629,223.805222 407.041504,228.171417 
	C408.985443,232.617844 408.437317,238.444717 414.263641,241.100037 
	C414.840088,241.265350 415.070648,241.331543 415.301239,241.397736 
z"/>
<path fill="#646667" opacity="1.000000" stroke="none" 
	d="
M340.505646,111.884247 
	C340.766724,111.743332 341.027802,111.602409 341.493835,112.023544 
	C343.518860,114.333359 345.338928,116.081116 346.896545,118.054214 
	C346.634094,120.306007 346.634094,122.332458 346.634094,123.732979 
	C348.461151,124.701477 351.231812,125.370461 351.357971,126.372345 
	C351.979614,131.310349 356.892426,135.167236 354.552185,140.566254 
	C343.668579,134.382416 333.150848,128.296539 323.052521,122.141647 
	C324.309204,120.798843 326.161102,118.902252 325.822296,118.350281 
	C323.236816,114.137886 326.292877,110.728333 327.131104,106.854813 
	C327.277710,106.694908 327.570557,106.374779 327.864319,106.460007 
	C328.601135,105.960312 329.044250,105.375397 329.487366,104.790482 
	C329.927338,104.889091 330.367340,104.987701 330.797516,105.690063 
	C331.551025,107.376427 332.314362,108.459045 333.077667,109.541656 
	C334.276093,109.755783 335.474487,109.969917 336.848724,110.798828 
	C337.372314,111.794266 337.720093,112.174927 338.067841,112.555588 
	C338.290314,112.441559 338.442566,112.502823 338.870178,112.773232 
	C339.645691,112.499474 340.075653,112.191864 340.505646,111.884247 
z"/>
<path fill="#828486" opacity="1.000000" stroke="none" 
	d="
M282.777893,99.110779 
	C284.488800,94.315796 283.181091,90.832680 280.522034,90.347206 
	C278.720581,85.629837 277.143219,81.499214 276.127563,77.326569 
	C281.273285,79.817787 285.788940,82.490776 290.487122,84.790886 
	C291.739258,85.403893 293.550537,84.874794 295.105103,84.870041 
	C295.388947,84.796272 295.647430,84.848427 295.907623,85.649330 
	C295.962646,87.154846 295.990540,88.037544 296.056152,89.314445 
	C298.076508,95.486710 299.504486,101.291222 296.581909,107.200104 
	C291.746887,104.446014 287.262390,101.778397 282.777893,99.110779 
z"/>
<path fill="#C1BFBD" opacity="1.000000" stroke="none" 
	d="
M372.395203,371.045380 
	C369.175293,371.875946 366.313385,372.680908 362.928589,373.507477 
	C361.937836,371.806335 361.153229,370.099304 361.066467,368.357544 
	C360.871094,364.434845 361.021332,360.494873 361.236877,356.312439 
	C365.281281,353.991608 369.119781,351.920349 373.015686,350.242340 
	C373.002686,352.986633 372.727936,355.354248 372.917236,357.684143 
	C373.120941,360.191772 373.663269,362.690155 374.321259,365.121246 
	C374.411346,365.453979 376.262543,365.783264 376.889252,365.416016 
	C379.682434,363.779297 382.327057,361.888977 385.388062,360.022247 
	C389.843170,357.712830 393.935547,355.471497 398.307648,353.047821 
	C399.391144,352.541412 400.194977,352.217346 401.003204,352.262024 
	C401.019745,353.122314 401.031921,353.613892 401.044098,354.105438 
	C391.613800,359.743530 382.183502,365.381622 372.395203,371.045380 
M371.485016,354.584290 
	C371.485016,354.584290 371.423187,354.477814 371.485016,354.584290 
z"/>
<path fill="#C1BFBD" opacity="1.000000" stroke="none" 
	d="
M202.922821,92.983208 
	C202.839432,91.520493 202.756042,90.057770 202.496750,88.067795 
	C202.320831,87.540543 202.345871,87.573280 202.650360,87.980255 
	C204.960373,87.582054 206.965912,86.776871 208.971451,85.971695 
	C208.971451,85.971703 208.661819,86.324577 208.661819,86.324577 
	C208.661819,86.324577 208.199310,86.240387 208.543701,86.149994 
	C209.938110,85.398834 210.988144,84.738075 212.355835,84.058395 
	C213.096817,84.011269 213.520142,83.983040 214.171600,84.224304 
	C219.277969,87.398224 223.365082,91.956940 229.712723,91.818047 
	C229.903549,91.813866 230.105377,92.312752 230.080795,92.822266 
	C224.584045,96.070778 219.308578,99.074104 213.863434,101.829681 
	C212.341080,100.921188 210.781998,100.500267 209.678177,99.550331 
	C207.302185,97.505623 205.160431,95.188713 202.922821,92.983208 
z"/>
<path fill="#5B5E5F" opacity="1.000000" stroke="none" 
	d="
M260.008850,434.882507 
	C258.539612,435.884552 257.070374,436.886566 255.032837,437.607178 
	C251.624771,436.570160 248.785019,435.814606 246.100174,434.825958 
	C245.631592,432.967529 245.008102,431.342224 244.434860,429.847931 
	C243.023743,429.934143 240.850128,430.654205 240.297592,430.001648 
	C237.537430,426.741852 235.235092,423.098145 232.708145,419.635895 
	C230.646347,416.810974 228.494980,414.051453 226.383316,411.262939 
	C225.911957,411.449615 225.440598,411.636292 224.969254,411.822968 
	C225.701035,410.181976 226.432816,408.541016 227.466309,407.061768 
	C232.846634,410.165497 237.925293,413.107544 242.992111,416.431702 
	C242.517532,419.039276 242.054779,421.264679 241.848160,422.258362 
	C244.298096,425.084198 245.713928,427.667084 247.893280,429.020660 
	C251.683441,431.374512 255.944946,432.969421 260.008850,434.882507 
z"/>
<path fill="#717474" opacity="1.000000" stroke="none" 
	d="
M245.945267,435.059082 
	C248.785019,435.814606 251.624771,436.570160 254.697830,437.600342 
	C250.133316,437.061401 244.648621,437.474304 240.649506,435.234589 
	C215.311234,421.044037 190.301636,406.266632 165.230331,391.276428 
	C165.521072,390.574036 165.765091,390.278076 166.358917,390.032013 
	C173.902496,394.145020 181.142365,398.129028 188.279633,402.289093 
	C200.101929,409.179871 211.795334,416.293549 223.665359,423.099976 
	C230.974548,427.291168 238.510910,431.086182 245.945267,435.059082 
z"/>
<path fill="#797B7E" opacity="1.000000" stroke="none" 
	d="
M166.009125,389.982117 
	C165.765091,390.278076 165.521072,390.574036 165.019058,391.006836 
	C158.831573,387.848755 152.870193,384.609650 146.978714,381.248016 
	C131.413849,372.366852 115.868858,363.450623 100.346390,354.495605 
	C98.489388,353.424316 96.820572,352.026825 95.168716,350.332031 
	C95.503143,349.609802 95.733368,349.336029 96.179619,348.908386 
	C99.891319,350.518341 103.386993,352.282166 107.065308,354.336029 
	C113.471016,358.430908 119.694069,362.235748 126.133270,366.303467 
	C134.569824,371.367126 142.790222,376.167908 151.312347,381.131348 
	C156.412430,384.190033 161.210785,387.086090 166.009125,389.982117 
z"/>
<path fill="#646667" opacity="1.000000" stroke="none" 
	d="
M260.295685,434.871704 
	C255.944946,432.969421 251.683441,431.374512 247.893280,429.020660 
	C245.713928,427.667084 244.298096,425.084198 241.848160,422.258362 
	C242.054779,421.264679 242.517532,419.039276 243.347534,416.511566 
	C245.487839,416.860535 247.260895,417.511810 249.104492,418.506531 
	C250.439484,419.243286 251.703964,419.636627 252.991470,420.406006 
	C255.209839,423.125183 257.643341,425.295166 259.516815,427.872314 
	C260.766663,429.591614 261.218781,431.890869 262.027954,433.930573 
	C261.546143,434.240692 261.064331,434.550781 260.295685,434.871704 
z"/>
<path fill="#797B7E" opacity="1.000000" stroke="none" 
	d="
M252.968430,420.029938 
	C251.703964,419.636627 250.439484,419.243286 249.447433,418.512756 
	C254.073959,416.768982 258.428070,415.362427 263.136963,414.007721 
	C263.968628,414.091919 264.445557,414.124298 265.012970,414.482635 
	C266.777740,416.544800 268.322388,418.436188 270.162750,419.973602 
	C271.998749,421.507324 274.131012,422.686401 275.981262,424.303741 
	C274.632721,425.819031 273.436340,427.051575 272.239929,428.284058 
	C271.417328,428.883392 270.594757,429.482697 269.338715,429.732056 
	C267.727783,428.136536 266.758881,426.207306 265.334015,425.772614 
	C260.911346,424.423370 259.318481,417.008453 252.968430,420.029938 
z"/>
<path fill="#717474" opacity="1.000000" stroke="none" 
	d="
M415.595764,241.061279 
	C415.070648,241.331543 414.840088,241.265350 414.283478,240.631622 
	C413.997223,214.703812 414.037018,189.343521 414.357910,163.987183 
	C415.013763,163.988892 415.388550,163.986633 415.763306,163.984375 
	C415.870117,185.081924 415.991730,206.179398 416.071899,227.277039 
	C416.088928,231.759338 415.954773,236.242218 415.595764,241.061279 
z"/>
<path fill="#AFB2B4" opacity="1.000000" stroke="none" 
	d="
M272.405090,428.360535 
	C273.436340,427.051575 274.632721,425.819031 276.293854,424.271820 
	C277.559998,423.308777 278.361420,422.660431 279.519440,421.966431 
	C282.239380,420.726257 286.102936,420.258759 284.779236,416.495361 
	C283.245697,412.135345 280.299927,408.514984 275.779327,406.603882 
	C277.266815,405.563904 278.570892,404.803864 280.266602,404.060394 
	C281.441895,404.097321 282.225525,404.117676 283.167175,404.420349 
	C286.551666,407.801758 289.778137,410.900879 293.004578,414.000000 
	C293.007202,414.419586 293.009796,414.839203 293.020172,415.573364 
	C286.208710,420.070953 279.389496,424.253967 272.405090,428.360535 
z"/>
<path fill="#8C8E91" opacity="1.000000" stroke="none" 
	d="
M347.158997,117.828888 
	C345.338928,116.081116 343.518860,114.333359 341.642273,112.224197 
	C352.539032,118.220551 363.499420,124.566124 374.440460,130.944794 
	C377.107880,132.499893 379.711975,134.163559 382.662903,136.277924 
	C382.974243,137.025360 382.967804,137.272186 382.599365,137.371735 
	C379.503174,135.954651 376.768982,134.684860 373.823547,133.197845 
	C364.794525,127.930046 355.976776,122.879471 347.158997,117.828888 
z"/>
<path fill="#797B7E" opacity="1.000000" stroke="none" 
	d="
M382.961334,137.519028 
	C382.967804,137.272186 382.974243,137.025360 382.986572,136.408203 
	C391.657928,141.111267 400.714081,145.646164 408.802704,151.514633 
	C412.188995,153.971481 413.522736,159.257370 415.776489,163.620697 
	C415.388550,163.986633 415.013763,163.988892 414.209717,163.662598 
	C411.658386,157.117599 407.943878,152.384293 402.027496,149.145462 
	C395.505188,145.574921 389.302979,141.419617 382.961334,137.519028 
z"/>
<path fill="#AFB2B4" opacity="1.000000" stroke="none" 
	d="
M296.018433,88.920235 
	C295.990540,88.037544 295.962646,87.154846 295.996155,85.832710 
	C306.041901,91.382050 316.026306,97.370842 325.842041,103.758148 
	C323.451843,103.404022 321.230286,102.651382 318.831787,101.615929 
	C316.169800,100.168839 313.684814,99.004555 311.164185,97.850388 
	C311.128601,97.860497 311.083099,97.918884 311.076355,97.591827 
	C310.383728,96.860435 309.697906,96.456108 308.802551,96.021103 
	C308.593079,95.990440 308.170197,95.969185 308.036682,95.737747 
	C307.609192,95.314911 307.315186,95.123512 307.013794,94.963921 
	C307.006409,94.995728 307.068420,94.975197 306.962891,94.746323 
	C306.575195,94.351959 306.293091,94.186462 305.720764,93.837448 
	C302.293182,92.076035 299.155792,90.498138 296.018433,88.920235 
z"/>
<path fill="#8C8E91" opacity="1.000000" stroke="none" 
	d="
M415.885132,286.003204 
	C415.921722,300.713623 415.958313,315.424042 415.607819,330.611633 
	C414.852692,331.093842 414.484619,331.098907 414.065247,330.683105 
	C413.971619,329.133209 413.929291,328.004211 413.907623,326.415100 
	C413.917511,319.275238 413.906769,312.595581 413.921051,305.453339 
	C414.002625,298.328339 414.059204,291.665924 414.345276,285.113464 
	C415.011566,285.483368 415.448334,285.743286 415.885132,286.003204 
z"/>
<path fill="#717474" opacity="1.000000" stroke="none" 
	d="
M252.991470,420.406006 
	C259.318481,417.008453 260.911346,424.423370 265.334015,425.772614 
	C266.758881,426.207306 267.727783,428.136536 268.951782,429.708008 
	C266.920380,431.334839 264.842468,432.635712 262.396240,433.933563 
	C261.218781,431.890869 260.766663,429.591614 259.516815,427.872314 
	C257.643341,425.295166 255.209839,423.125183 252.991470,420.406006 
z"/>
<path fill="#C9CCCF" opacity="1.000000" stroke="none" 
	d="
M264.283813,67.448952 
	C261.980164,67.384293 259.791962,66.844955 257.571228,66.554276 
	C253.903702,66.074211 250.215164,65.754654 245.864365,65.660027 
	C241.449814,67.926765 237.706375,69.900917 233.954254,71.425804 
	C233.865768,70.383194 233.785995,69.789856 233.706223,69.196518 
	C243.447632,61.447231 253.645081,60.326622 264.283813,67.448952 
z"/>
<path fill="#797B7E" opacity="1.000000" stroke="none" 
	d="
M415.970276,285.541016 
	C415.448334,285.743286 415.011566,285.483368 414.289368,285.110443 
	C414.003998,284.997437 413.896637,284.972656 413.923706,284.607849 
	C413.941803,283.512299 413.932831,282.781616 413.945618,281.609192 
	C413.959137,279.098816 413.950867,277.030212 413.942627,274.961578 
	C413.977264,266.785095 414.011902,258.608582 414.047363,249.921356 
	C414.715363,250.709335 415.941650,251.999649 415.961365,253.308136 
	C416.120728,263.896454 416.053528,274.488159 415.970276,285.541016 
z"/>
<path fill="#AFB2B4" opacity="1.000000" stroke="none" 
	d="
M414.116577,331.104004 
	C414.484619,331.098907 414.852692,331.093842 415.496338,331.072021 
	C416.881134,342.242249 410.695312,348.964417 401.389954,354.047241 
	C401.031921,353.613892 401.019745,353.122314 401.192627,352.006805 
	C402.928345,350.292023 404.479034,349.201202 406.322327,347.947418 
	C407.829559,346.265686 409.044220,344.746918 410.541016,343.021423 
	C411.874023,340.207642 412.924927,337.600616 414.010986,334.604553 
	C414.069672,333.178345 414.093109,332.141174 414.116577,331.104004 
z"/>
<path fill="#BEBCBA" opacity="1.000000" stroke="none" 
	d="
M294.845886,84.608810 
	C293.550537,84.874794 291.739258,85.403893 290.487122,84.790886 
	C285.788940,82.490776 281.273285,79.817787 276.383545,77.123672 
	C275.995544,76.189430 275.913208,75.416046 275.884033,74.255630 
	C282.153687,77.361595 288.370178,80.854591 294.845886,84.608810 
z"/>
<path fill="#A1A4A7" opacity="1.000000" stroke="none" 
	d="
M95.963593,349.062286 
	C95.733368,349.336029 95.503143,349.609802 95.038330,350.023132 
	C92.185173,346.683899 89.566612,343.205109 86.982811,339.358398 
	C87.305771,338.774200 87.593971,338.557861 88.321281,338.310547 
	C90.100525,340.574951 91.440651,342.870300 92.927200,345.369843 
	C93.334732,345.781677 93.595848,345.989288 93.913391,346.501831 
	C94.634407,347.558624 95.298996,348.310455 95.963593,349.062286 
z"/>
<path fill="#DEDCDD" opacity="1.000000" stroke="none" 
	d="
M214.985611,80.011986 
	C219.312515,77.416252 223.639404,74.820518 228.425262,72.672958 
	C228.930725,73.452255 228.977219,73.783371 228.805969,74.273911 
	C228.353256,74.911369 228.118271,75.389397 227.606110,75.912796 
	C226.882065,76.260948 226.435181,76.563728 225.743332,77.003906 
	C225.249496,77.417946 225.000610,77.694580 224.394928,77.971794 
	C221.373611,79.321381 218.709076,80.670387 215.828156,81.905205 
	C215.403046,81.198013 215.194321,80.604996 214.985611,80.011986 
z"/>
<path fill="#646667" opacity="1.000000" stroke="none" 
	d="
M319.008728,101.898743 
	C321.230286,102.651382 323.451843,103.404022 326.075562,104.033844 
	C326.477692,103.911034 326.741913,103.781799 326.748871,104.191971 
	C327.027405,105.193024 327.298981,105.783905 327.570557,106.374786 
	C327.570557,106.374779 327.277710,106.694908 326.729370,106.851837 
	C322.456451,107.177490 319.495911,106.273865 319.008728,101.898743 
z"/>
<path fill="#D5D8DA" opacity="1.000000" stroke="none" 
	d="
M229.023712,74.114487 
	C228.977219,73.783371 228.930725,73.452255 228.802139,72.626358 
	C230.162766,71.195457 231.605484,70.259338 233.377228,69.259872 
	C233.785995,69.789856 233.865768,70.383194 233.651062,71.595917 
	C231.912292,72.848358 230.468002,73.481422 229.023712,74.114487 
z"/>
<path fill="#DEDCDD" opacity="1.000000" stroke="none" 
	d="
M208.933136,85.606720 
	C206.965912,86.776871 204.960373,87.582054 202.656006,87.999008 
	C204.536392,86.821098 206.715607,86.031418 208.933136,85.606720 
z"/>
<path fill="#D5D8DA" opacity="1.000000" stroke="none" 
	d="
M214.734497,80.005325 
	C215.194321,80.604996 215.403046,81.198013 215.658508,82.140404 
	C215.117996,82.978127 214.530731,83.466469 213.943466,83.954819 
	C213.520142,83.983040 213.096817,84.011269 212.245193,83.556641 
	C211.713486,82.747910 211.610077,82.422020 211.506668,82.096130 
	C212.498901,81.396973 213.491150,80.697815 214.734497,80.005325 
z"/>
<path fill="#C9CCCF" opacity="1.000000" stroke="none" 
	d="
M268.092590,69.510551 
	C266.758759,69.440445 265.402863,68.997765 264.091675,68.159264 
	C265.447723,68.221619 266.759125,68.679802 268.092590,69.510551 
z"/>
<path fill="#DEDCDD" opacity="1.000000" stroke="none" 
	d="
M211.100266,82.233414 
	C211.610077,82.422020 211.713486,82.747910 211.927536,83.575546 
	C210.988144,84.738075 209.938110,85.398834 208.458405,85.931595 
	C208.917099,84.659302 209.805481,83.514999 211.100266,82.233414 
z"/>
<path fill="#AFB2B4" opacity="1.000000" stroke="none" 
	d="
M327.864319,106.460007 
	C327.298981,105.783905 327.027405,105.193024 326.863739,104.283783 
	C327.657257,104.064438 328.342865,104.163445 329.257935,104.526466 
	C329.044250,105.375397 328.601135,105.960312 327.864319,106.460007 
z"/>
<path fill="#C9CCCF" opacity="1.000000" stroke="none" 
	d="
M271.093079,70.891785 
	C270.620880,71.389191 270.113861,71.888855 269.606842,72.388519 
	C269.054352,71.717888 268.501862,71.047272 268.090302,70.050827 
	C268.231232,69.725014 268.684052,69.650192 269.014557,70.067879 
	C269.914490,70.644920 270.483887,70.804276 271.053314,70.963631 
	C271.053314,70.963631 271.058289,70.894051 271.093079,70.891785 
z"/>
<path fill="#AFB2B4" opacity="1.000000" stroke="none" 
	d="
M333.570129,109.297424 
	C332.314362,108.459045 331.551025,107.376427 330.912933,105.898918 
	C332.046295,106.687073 333.054443,107.870125 333.570129,109.297424 
z"/>
<path fill="#BEBCBA" opacity="1.000000" stroke="none" 
	d="
M270.904541,70.694122 
	C270.483887,70.804276 269.914490,70.644920 269.171478,70.235306 
	C269.583862,70.131569 270.169800,70.278091 270.904541,70.694122 
z"/>
<path fill="#AFB2B4" opacity="1.000000" stroke="none" 
	d="
M338.594208,112.202629 
	C337.720093,112.174927 337.372314,111.794266 336.737000,111.152428 
	C336.833160,110.516113 337.216827,110.140968 337.600525,109.765823 
	C338.107208,110.460442 338.613892,111.155060 338.594208,112.202629 
z"/>
<path fill="#AFB2B4" opacity="1.000000" stroke="none" 
	d="
M339.997375,111.516418 
	C340.075653,112.191864 339.645691,112.499474 338.815063,112.903778 
	C338.772644,112.383179 339.130890,111.765892 339.997375,111.516418 
z"/>
<path fill="#010101" opacity="1.000000" stroke="none" 
	d="
M279.874939,404.043793 
	C278.570892,404.803864 277.266815,405.563904 275.449402,406.704895 
	C270.884766,409.375854 266.833466,411.665863 262.782166,413.955872 
	C258.428070,415.362427 254.073959,416.768982 249.376892,418.169312 
	C247.260895,417.511810 245.487839,416.860535 243.359344,416.129395 
	C237.925293,413.107544 232.846634,410.165497 227.240952,406.797394 
	C214.465042,399.278320 202.216187,392.185333 189.621231,384.996918 
	C186.455673,383.287109 183.629944,381.683563 180.817917,380.056335 
	C172.358002,375.160950 163.903427,370.256256 155.233521,365.112183 
	C150.651093,362.613312 146.179443,360.532776 141.939957,358.055054 
	C137.174835,355.270172 132.619278,352.126740 127.672836,348.967590 
	C124.243912,346.874146 121.114723,344.952423 117.750656,342.784790 
	C116.095711,341.908691 114.675644,341.278473 113.234909,340.628967 
	C113.214249,340.609711 113.271309,340.614441 113.169281,340.314240 
	C110.535355,337.647034 108.003471,335.280060 105.389862,332.550903 
	C104.837509,330.806824 104.366890,329.424866 103.947960,327.635803 
	C103.919975,326.141907 103.840294,325.055145 103.813232,323.647095 
	C103.824364,322.895508 103.782883,322.465149 103.822769,321.692261 
	C103.844009,320.887787 103.783897,320.425842 103.784134,319.518494 
	C103.793793,315.449615 103.743095,311.826111 103.759346,307.819031 
	C103.570450,303.694183 103.140785,299.954163 103.112907,296.211182 
	C103.089973,293.131866 103.543762,290.048981 103.846085,286.532288 
	C103.868256,278.725647 103.830612,271.354340 103.860260,263.657837 
	C103.883087,262.894379 103.838615,262.456116 103.875519,261.681793 
	C103.902565,260.891235 103.848251,260.436768 103.862007,259.582489 
	C103.879547,256.901611 103.829010,254.620529 103.849487,251.983643 
	C103.874275,250.422989 103.828064,249.218170 103.867088,247.639923 
	C103.898552,246.506821 103.844765,245.747131 103.865448,244.525024 
	C103.887817,237.374084 103.835709,230.685547 103.863182,223.536911 
	C103.886520,218.378357 103.830276,213.679886 103.850082,208.519501 
	C103.877052,196.700653 103.827972,185.343735 103.875160,173.620422 
	C104.859917,165.746384 110.656250,162.517609 116.278954,159.137436 
	C119.712830,157.219650 123.146713,155.301865 127.120033,153.015900 
	C140.356461,145.195297 153.053436,137.742889 165.750427,130.290482 
	C171.758392,126.878067 177.766373,123.465645 184.331528,119.684204 
	C190.274643,115.916161 195.660568,112.517159 201.415634,109.088058 
	C205.867554,106.731117 209.950333,104.404274 214.033096,102.077423 
	C219.308578,99.074104 224.584045,96.070778 230.414139,92.686699 
	C235.371597,89.638680 239.774445,86.971397 244.546585,84.232475 
	C246.595352,83.650490 248.274826,83.140144 249.954285,82.629791 
	C256.957428,85.918076 264.017883,89.091309 270.941101,92.540054 
	C274.777252,94.450989 278.383911,96.822678 282.435944,99.048737 
	C287.262390,101.778397 291.746887,104.446014 296.781433,107.461830 
	C302.193878,110.554779 307.056213,113.299530 312.141113,116.306122 
	C315.786774,118.448868 319.209930,120.329765 322.633087,122.210663 
	C333.150848,128.296539 343.668579,134.382416 354.747192,140.791290 
	C364.168854,146.181595 373.029633,151.248932 382.084229,156.585999 
	C384.082855,158.000137 385.800415,159.322479 387.707825,160.257645 
	C395.251648,163.956238 398.367249,169.950546 398.070679,178.283020 
	C397.789093,186.193161 398.111908,194.124817 398.118958,202.436035 
	C398.093842,203.869507 398.118774,204.913971 398.078674,206.415543 
	C398.048889,210.258408 398.084137,213.644150 398.119385,217.029892 
	C398.083435,226.378845 398.047516,235.727798 398.017212,246.008392 
	C398.053375,253.963852 398.083893,260.987701 398.061890,268.475891 
	C398.058075,274.302368 398.106750,279.664520 398.102905,285.489777 
	C398.079041,291.305573 398.107666,296.658234 398.072052,302.467224 
	C398.037170,306.619049 398.066528,310.314545 398.046631,314.474426 
	C397.977722,320.248993 397.958038,325.559113 397.629791,331.027283 
	C395.860107,333.362305 394.399017,335.539276 392.608398,337.838501 
	C388.187378,340.660858 384.095917,343.360992 379.654175,346.059814 
	C377.188660,347.321991 375.073456,348.585510 372.958252,349.849060 
	C369.119781,351.920349 365.281281,353.991608 360.856354,356.399170 
	C354.954254,359.700287 349.638611,362.665161 344.322998,365.630035 
	C326.591797,376.023071 308.860596,386.416077 290.535889,397.107330 
	C286.586548,399.618317 283.230743,401.831055 279.874939,404.043793 
M237.058090,248.973770 
	C236.299957,249.288223 235.541824,249.602676 234.221786,250.357010 
	C231.818176,253.686523 229.414551,257.016022 226.431274,260.595581 
	C225.062653,261.634583 223.694031,262.673553 221.860580,263.592407 
	C221.515259,263.891602 221.169922,264.190796 220.104980,264.675385 
	C217.784760,265.561768 215.464523,266.448120 212.198029,267.302063 
	C207.856415,267.343658 203.514801,267.385254 198.705521,267.099426 
	C198.137100,267.060150 197.568695,267.020874 196.565460,266.371857 
	C194.880814,265.765289 193.141174,265.278076 191.520920,264.531677 
	C184.126740,261.125427 179.933853,254.694855 176.048309,247.293991 
	C175.459305,245.865936 174.870316,244.437881 174.055298,242.297974 
	C171.346848,230.875732 171.238281,219.386597 174.405884,208.120621 
	C177.118576,198.472565 181.912872,189.879364 191.337479,185.101624 
	C206.507889,177.411102 224.238739,182.519562 233.775345,196.888687 
	C234.590500,198.116943 237.145050,199.538055 238.106277,199.109238 
	C245.890106,195.636810 253.486130,191.743393 261.122223,187.986816 
	C247.768097,158.636978 219.865768,150.413651 193.118027,154.889297 
	C177.292511,157.537369 165.300186,167.115997 156.075104,179.731995 
	C142.131104,198.801498 139.649765,220.292816 144.401413,243.599640 
	C144.645081,244.384872 144.888748,245.170105 145.169128,246.704712 
	C148.313431,253.482803 151.457733,260.260895 154.801086,267.710663 
	C155.669769,268.780518 156.538452,269.850372 157.657593,271.501984 
	C160.006989,273.961487 162.356384,276.421021 164.935318,279.369751 
	C165.629578,279.895020 166.323837,280.420258 167.320496,281.504700 
	C168.193420,282.056519 169.066345,282.608337 170.253784,283.752625 
	C174.141571,285.907776 178.029373,288.062927 182.269897,290.699615 
	C182.856003,290.770721 183.442123,290.841858 184.571716,291.402283 
	C188.047592,292.283112 191.523468,293.163940 195.573486,294.513733 
	C197.045654,294.536255 198.517822,294.558746 200.856400,294.813538 
	C203.238663,294.806091 205.620911,294.798676 208.739914,294.997009 
	C209.491562,294.905731 210.243225,294.814423 211.716675,294.928314 
	C213.183746,294.768890 214.650803,294.609467 216.755051,294.666595 
	C217.351501,294.451782 217.947968,294.236938 219.200302,293.787689 
	C219.439713,293.416351 219.679108,293.045044 219.507416,293.386200 
	C219.731049,293.544891 219.954681,293.703552 220.587631,293.986115 
	C221.767853,293.603333 222.948090,293.220551 224.900421,292.917389 
	C226.985245,292.156799 229.070053,291.396210 231.832550,290.567871 
	C232.568787,290.078857 233.305023,289.589813 234.729523,289.059052 
	C236.820618,287.745392 238.911713,286.431732 241.680511,285.038452 
	C242.748901,284.203949 243.817276,283.369446 244.953842,282.439087 
	C244.953842,282.439087 245.022339,282.343536 245.619659,282.103485 
	C246.474976,281.199249 247.330292,280.295013 248.763885,279.194824 
	C249.567139,278.320251 250.370377,277.445679 251.770554,276.187622 
	C254.435120,272.421478 257.133514,268.678680 259.751221,264.880219 
	C261.249573,262.706055 260.739655,261.256958 257.930573,260.724426 
	C257.930573,260.724426 257.803925,260.669220 257.320160,260.130005 
	C255.212189,259.139709 253.104233,258.149445 250.740051,256.765625 
	C250.512283,256.515259 250.229568,256.401947 249.356552,255.959213 
	C245.475784,253.788605 241.595016,251.618011 237.570343,249.378830 
	C237.570343,249.378830 237.418777,249.329453 237.058090,248.973770 
M236.478683,352.342560 
	C236.478683,352.342560 236.468979,352.399811 236.252121,353.126007 
	C236.802246,354.141052 237.307510,355.183594 237.909302,356.167023 
	C245.864395,369.166992 266.330505,366.998566 271.062927,356.200012 
	C270.747253,355.913818 270.431580,355.627625 270.187317,355.027344 
	C270.142731,354.780029 269.995789,354.641479 269.423920,353.933411 
	C266.897675,354.180786 264.328461,354.219696 261.856201,354.729095 
	C258.873688,355.343597 255.973389,356.357178 252.343124,356.960480 
	C247.715805,355.377991 244.511658,352.726654 245.968719,347.353271 
	C249.667053,347.279816 253.365387,347.206360 257.757141,347.407898 
	C258.485535,347.317413 259.213959,347.226929 260.837952,347.336060 
	C263.584961,347.277588 266.331940,347.219086 269.638641,347.439667 
	C270.899323,346.166962 273.277252,344.855713 273.234894,343.627930 
	C273.002380,336.889313 270.408173,331.240021 263.517761,327.551117 
	C261.379852,326.909821 259.228912,326.308746 257.106384,325.619995 
	C249.743896,323.230988 243.505890,325.552673 239.176117,331.357910 
	C234.829849,337.185211 233.350296,344.021942 236.144485,351.587250 
	C236.246887,351.821869 236.349304,352.056488 236.478683,352.342560 
M296.716309,351.889740 
	C294.203125,345.616882 291.616974,339.372070 289.195435,333.064026 
	C286.251953,325.396332 288.068695,325.036865 276.986450,326.373322 
	C281.985718,338.283203 286.874725,350.147797 292.046143,361.888031 
	C292.522247,362.968903 294.893219,363.937775 296.217407,363.754242 
	C298.238312,363.474152 301.251526,362.628632 301.869354,361.180786 
	C306.538055,350.239899 310.724365,339.093201 315.185425,327.170197 
	C308.774414,324.454926 306.577271,325.304230 304.478058,331.350037 
	C302.101654,338.194122 299.747345,345.045868 296.716309,351.889740 
M216.681442,329.717712 
	C215.685211,329.090668 214.688980,328.463623 213.261993,327.206818 
	C210.958130,326.395447 208.704086,325.107819 206.341202,324.860535 
	C198.759140,324.067108 191.712204,328.625977 189.092743,335.597595 
	C185.468430,345.243561 187.941345,356.127075 195.246078,361.860352 
	C203.032288,367.179718 210.503281,365.519989 217.704544,360.626495 
	C218.450836,361.778015 218.875381,363.268707 219.706879,363.548096 
	C221.641907,364.198181 223.774734,364.447113 225.823364,364.427795 
	C226.283432,364.423492 227.119308,362.654938 227.119431,361.698456 
	C227.121475,346.122162 227.016754,330.545868 227.136703,314.411163 
	C226.117111,310.067474 224.257416,309.379059 218.042908,311.181702 
	C218.042908,314.566589 218.182755,318.020508 218.000275,321.457336 
	C217.843964,324.400940 217.318481,327.324951 216.681442,329.717712 
M310.855133,294.562592 
	C324.803955,294.554840 338.753235,294.483368 352.701294,294.583588 
	C356.245056,294.609039 357.904327,293.358032 357.845367,289.689087 
	C357.746643,283.547089 357.746399,277.398315 357.930054,271.259125 
	C358.023956,268.121765 356.498199,267.091461 353.734009,267.127075 
	C336.811798,267.345093 319.889801,267.574615 302.774475,267.120575 
	C302.598267,266.441528 302.422058,265.762512 302.553680,264.446899 
	C302.452209,263.287323 302.350708,262.127747 302.513916,260.161377 
	C302.406891,258.765167 302.299835,257.368988 302.483521,255.083405 
	C302.483521,221.550537 302.483521,188.017685 302.483521,154.057388 
	C293.284882,154.057388 284.180542,154.025299 275.077972,154.134979 
	C274.515381,154.141754 273.966248,155.265152 273.220001,156.677048 
	C273.307953,163.463776 273.395905,170.250504 273.290588,177.670013 
	C273.353943,178.101700 273.417297,178.533371 273.241791,179.865341 
	C273.297119,183.587509 273.352478,187.309662 273.257111,191.675201 
	C273.332794,192.105087 273.408478,192.534973 273.239227,193.877914 
	C273.316315,214.930740 273.393402,235.983551 273.275513,257.807587 
	C273.335297,258.860596 273.395081,259.913605 273.219299,261.877136 
	C273.299988,266.596680 273.380707,271.316254 273.270020,276.934540 
	C273.351593,280.609314 273.433167,284.284119 273.268188,288.732727 
	C273.519592,290.481506 273.771027,292.230316 274.496521,294.646118 
	C286.317535,294.515594 298.138519,294.385071 310.855133,294.562592 
z"/>
<path fill="#C9CCCF" opacity="1.000000" stroke="none" 
	d="
M103.778893,173.986801 
	C103.827972,185.343735 103.877052,196.700653 103.475830,208.518326 
	C100.482033,206.973541 95.699791,204.859314 95.790955,202.981735 
	C96.144890,195.692474 91.705482,197.922165 88.081726,198.050751 
	C88.060005,188.818451 87.522812,179.549438 88.176964,170.365280 
	C88.716339,162.792709 91.181793,155.600327 98.948227,151.345825 
	C102.496513,155.409088 98.647285,157.055542 97.290932,158.410294 
	C98.156876,160.349258 98.705139,161.642426 99.306282,162.910538 
	C101.015121,166.515305 98.025223,172.018250 103.778893,173.986801 
z"/>
<path fill="#E6E6E6" opacity="1.000000" stroke="none" 
	d="
M165.376404,130.144485 
	C153.053436,137.742889 140.356461,145.195297 127.333717,152.733551 
	C125.627571,148.654678 124.012703,144.545502 123.005569,140.292419 
	C122.691582,138.966461 123.568558,136.549637 124.675995,135.836182 
	C129.430908,132.772919 134.425201,130.064972 139.426529,127.404778 
	C145.092606,124.390999 150.859390,121.566566 155.164780,119.379814 
	C158.996796,123.516075 161.999588,126.757286 165.376404,130.144485 
M158.513290,131.433334 
	C158.513290,131.433334 158.561005,131.521240 158.513290,131.433334 
z"/>
<path fill="#8C8E91" opacity="1.000000" stroke="none" 
	d="
M103.786263,286.967682 
	C103.543762,290.048981 103.089973,293.131866 103.112907,296.211182 
	C103.140785,299.954163 103.570450,303.694183 103.319305,307.753052 
	C98.012802,306.113251 91.952934,307.822723 88.130043,303.024048 
	C88.118515,293.347046 88.106979,283.670074 88.471558,273.558868 
	C89.569359,273.938293 90.451767,274.658783 90.986145,275.580963 
	C94.008133,280.795929 96.106789,287.000153 103.786263,286.967682 
z"/>
<path fill="#BEBCBA" opacity="1.000000" stroke="none" 
	d="
M103.783600,223.996994 
	C103.835709,230.685547 103.887817,237.374084 103.556236,244.587463 
	C103.375648,246.079300 103.578751,247.046326 103.781845,248.013336 
	C103.828064,249.218170 103.874275,250.422989 103.447784,251.874329 
	C95.614021,250.686188 95.263115,243.565018 92.969749,238.586075 
	C91.692665,235.813507 91.100731,234.115173 88.051147,234.016479 
	C88.045090,231.959473 88.039032,229.902466 88.346710,227.374573 
	C88.960800,226.589691 89.261162,226.275696 89.561523,225.961700 
	C89.075165,225.653427 88.588806,225.345139 88.102448,225.036865 
	C88.088104,221.669281 88.073753,218.301712 88.412033,214.535538 
	C92.657791,219.119247 96.043915,224.873810 103.783600,223.996994 
z"/>
<path fill="#A1A4A7" opacity="1.000000" stroke="none" 
	d="
M103.846085,286.532288 
	C96.106789,287.000153 94.008133,280.795929 90.986145,275.580963 
	C90.451767,274.658783 89.569359,273.938293 88.506119,273.095764 
	C88.130791,265.703064 88.097000,258.339294 88.423317,250.560852 
	C92.721680,256.683533 96.659950,263.220886 100.138481,268.995117 
	C101.566055,267.037231 102.679512,265.510162 103.792969,263.983063 
	C103.830612,271.354340 103.868256,278.725647 103.846085,286.532288 
z"/>
<path fill="#717474" opacity="1.000000" stroke="none" 
	d="
M117.985535,343.030670 
	C121.114723,344.952423 124.243912,346.874146 127.612953,349.297791 
	C126.911133,349.979523 125.940331,350.399902 125.033752,350.290131 
	C123.032455,350.047729 121.078133,349.395508 119.075981,349.190430 
	C117.843849,349.064240 116.427643,349.166473 115.323036,349.669220 
	C112.442261,350.980225 109.687614,352.568390 106.882668,354.046021 
	C103.386993,352.282166 99.891319,350.518341 96.179611,348.908386 
	C95.298996,348.310455 94.634407,347.558624 93.960312,346.203613 
	C93.968460,345.401154 93.986122,345.201813 94.198792,344.878723 
	C94.382118,344.420563 94.370438,344.086121 94.358765,343.751678 
	C94.237808,344.166382 94.116852,344.581116 93.690712,345.028259 
	C93.183952,345.095703 92.982368,345.130676 92.780777,345.165649 
	C91.440651,342.870300 90.100525,340.574951 88.487488,338.094421 
	C88.103035,335.565155 87.991493,333.221039 88.317802,330.522247 
	C89.170731,331.145050 90.057411,332.195404 89.919685,333.087555 
	C89.305885,337.063812 92.135208,338.744568 94.857529,339.157654 
	C100.929337,340.079010 107.125702,340.179504 113.271309,340.614441 
	C113.271309,340.614441 113.214249,340.609711 113.261078,340.987488 
	C114.867111,341.920410 116.426323,342.475555 117.985535,343.030670 
z"/>
<path fill="#828486" opacity="1.000000" stroke="none" 
	d="
M88.078629,303.487366 
	C91.952934,307.822723 98.012802,306.113251 103.252350,308.136597 
	C103.743095,311.826111 103.793793,315.449615 103.518616,319.573700 
	C103.375633,320.727753 103.558525,321.381287 103.741409,322.034790 
	C103.782883,322.465149 103.824364,322.895508 103.498276,323.727356 
	C102.754631,326.085876 102.378540,328.042938 101.645309,329.926208 
	C100.240723,328.581848 99.416283,326.576599 98.104042,326.178253 
	C94.148453,324.977478 90.572250,323.450378 88.067711,320.011810 
	C88.054214,314.658112 88.040710,309.304413 88.078629,303.487366 
z"/>
<path fill="#C1BFBD" opacity="1.000000" stroke="none" 
	d="
M103.863182,223.536911 
	C96.043915,224.873810 92.657791,219.119247 88.434402,214.078415 
	C88.093025,213.566071 88.081909,213.112244 88.372437,212.279541 
	C88.969246,211.589386 89.264420,211.278091 89.559593,210.966797 
	C89.085709,210.652191 88.611832,210.337570 88.137947,210.022964 
	C88.108170,206.335922 88.078384,202.648880 88.065170,198.506287 
	C91.705482,197.922165 96.144890,195.692474 95.790955,202.981735 
	C95.699791,204.859314 100.482033,206.973541 103.399780,208.980240 
	C103.830276,213.679886 103.886520,218.378357 103.863182,223.536911 
z"/>
<path fill="#D5D8DA" opacity="1.000000" stroke="none" 
	d="
M103.875160,173.620422 
	C98.025223,172.018250 101.015121,166.515305 99.306282,162.910538 
	C98.705139,161.642426 98.156876,160.349258 97.290932,158.410294 
	C98.647285,157.055542 102.496513,155.409088 99.260056,151.200165 
	C102.563599,149.447205 106.127701,147.916183 109.206436,146.593674 
	C111.758675,151.393768 113.713669,155.070587 115.973808,158.942429 
	C110.656250,162.517609 104.859917,165.746384 103.875160,173.620422 
z"/>
<path fill="#AFB2B4" opacity="1.000000" stroke="none" 
	d="
M103.860260,263.657837 
	C102.679512,265.510162 101.566055,267.037231 100.138481,268.995117 
	C96.659950,263.220886 92.721680,256.683533 88.448898,250.095825 
	C88.082718,245.012512 88.051056,239.979568 88.035271,234.481537 
	C91.100731,234.115173 91.692665,235.813507 92.969749,238.586075 
	C95.263115,243.565018 95.614021,250.686188 103.376785,252.230133 
	C103.829010,254.620529 103.879547,256.901611 103.588165,259.631378 
	C103.428879,260.725983 103.611511,261.371918 103.794151,262.017853 
	C103.838615,262.456116 103.883087,262.894379 103.860260,263.657837 
z"/>
<path fill="#C9CCCF" opacity="1.000000" stroke="none" 
	d="
M213.863434,101.829674 
	C209.950333,104.404274 205.867554,106.731117 201.364899,108.779610 
	C200.785217,108.229431 200.598282,107.707726 200.469513,107.721703 
	C194.739197,108.343849 191.255310,106.317513 188.992096,100.995117 
	C188.992096,100.995117 189.000000,101.000000 189.317139,100.954216 
	C190.080933,100.268913 190.527588,99.629402 190.974243,98.989899 
	C193.776566,96.751785 196.578873,94.513680 199.814697,92.366531 
	C200.464554,92.727280 200.739792,92.906883 201.073914,92.996292 
	C201.485458,92.988045 201.897018,92.979797 202.615692,92.977379 
	C205.160431,95.188713 207.302185,97.505623 209.678177,99.550331 
	C210.781998,100.500267 212.341080,100.921188 213.863434,101.829674 
z"/>
<path fill="#D5D8DA" opacity="1.000000" stroke="none" 
	d="
M188.584152,100.994934 
	C191.255310,106.317513 194.739197,108.343849 200.469513,107.721703 
	C200.598282,107.707726 200.785217,108.229431 200.995758,108.809700 
	C195.660568,112.517159 190.274643,115.916161 184.538483,119.420578 
	C183.588379,118.270752 182.967484,115.924606 182.392029,115.935699 
	C178.384003,116.012955 178.847244,111.786118 176.645813,110.153191 
	C176.108734,109.754822 176.782959,106.120087 177.809494,105.514397 
	C181.032074,103.612984 184.688065,102.446106 188.584152,100.994934 
z"/>
<path fill="#797B7E" opacity="1.000000" stroke="none" 
	d="
M88.010223,320.462036 
	C90.572250,323.450378 94.148453,324.977478 98.104042,326.178253 
	C99.416283,326.576599 100.240723,328.581848 101.644089,329.926208 
	C102.000000,330.000000 102.000046,329.997559 102.056183,330.339600 
	C103.232079,331.425476 104.351837,332.169281 105.471588,332.913086 
	C108.003471,335.280060 110.535355,337.647034 113.169281,340.314240 
	C107.125702,340.179504 100.929337,340.079010 94.857529,339.157654 
	C92.135208,338.744568 89.305885,337.063812 89.919685,333.087555 
	C90.057411,332.195404 89.170731,331.145050 88.379868,330.084045 
	C87.986977,326.971161 87.969864,323.941711 88.010223,320.462036 
z"/>
<path fill="#D5D8DA" opacity="1.000000" stroke="none" 
	d="
M190.658707,99.037369 
	C190.527588,99.629402 190.080933,100.268913 189.314850,100.950562 
	C189.444687,100.356750 189.893921,99.720802 190.658707,99.037369 
z"/>
<path fill="#AFB2B4" opacity="1.000000" stroke="none" 
	d="
M88.081062,225.358063 
	C88.588806,225.345139 89.075165,225.653427 89.561523,225.961700 
	C89.261162,226.275696 88.960800,226.589691 88.377518,226.934723 
	C88.082962,226.536911 88.071320,226.108093 88.081062,225.358063 
z"/>
<path fill="#BEBCBA" opacity="1.000000" stroke="none" 
	d="
M88.107460,210.348373 
	C88.611832,210.337570 89.085709,210.652191 89.559593,210.966797 
	C89.264420,211.278091 88.969246,211.589386 88.397034,211.939926 
	C88.105659,211.544037 88.091316,211.108917 88.107460,210.348373 
z"/>
<path fill="#C1BFBD" opacity="1.000000" stroke="none" 
	d="
M200.955536,92.776970 
	C200.739792,92.906883 200.464554,92.727280 200.133362,92.236862 
	C200.349869,92.108269 200.622757,92.288734 200.955536,92.776970 
z"/>
<path fill="#C9CCCF" opacity="1.000000" stroke="none" 
	d="
M344.596252,365.786682 
	C349.638611,362.665161 354.954254,359.700287 360.650421,356.648682 
	C361.021332,360.494873 360.871094,364.434845 361.066467,368.357544 
	C361.153229,370.099304 361.937836,371.806335 362.704590,373.769897 
	C354.922363,378.336670 346.841217,382.662628 338.437195,386.587219 
	C338.741791,381.456848 339.369293,376.727814 339.996796,371.998779 
	C341.621033,369.980286 343.245239,367.961823 344.596252,365.786682 
z"/>
<path fill="#D5D8DA" opacity="1.000000" stroke="none" 
	d="
M339.649292,372.057831 
	C339.369293,376.727814 338.741791,381.456848 338.056519,386.596008 
	C337.998718,387.006104 337.999969,386.999176 337.784363,387.111816 
	C337.294250,387.425964 337.103943,387.688477 336.997864,388.012054 
	C335.429382,388.772827 333.793030,389.421265 332.307159,390.318817 
	C329.604187,391.951752 326.990601,393.732605 323.918396,395.724884 
	C320.696289,394.415192 322.300507,392.022400 323.235992,389.518219 
	C326.231750,381.499237 331.802185,375.936981 339.649292,372.057831 
z"/>
<path fill="#D5D8DA" opacity="1.000000" stroke="none" 
	d="
M280.266602,404.060394 
	C283.230743,401.831055 286.586548,399.618317 290.301788,397.329224 
	C293.104492,399.498901 295.541473,401.751801 297.993500,403.988159 
	C299.322449,405.200165 300.781738,406.296143 301.926788,407.659027 
	C302.140594,407.913544 301.140747,409.187653 300.100433,409.723938 
	C297.997284,409.307281 296.494720,409.157898 294.996063,409.004272 
	C295.000000,409.000000 294.991913,409.007843 294.952454,408.646851 
	C292.613678,407.185730 290.314362,406.085632 287.943878,404.631836 
	C286.251526,404.231415 284.630341,404.184692 283.009155,404.138000 
	C282.225525,404.117676 281.441895,404.097321 280.266602,404.060394 
z"/>
<path fill="#C1BFBD" opacity="1.000000" stroke="none" 
	d="
M283.167175,404.420288 
	C284.630341,404.184692 286.251526,404.231415 287.980164,404.995117 
	C290.389069,406.810669 292.690491,407.909271 294.991913,409.007843 
	C294.991913,409.007843 295.000000,409.000000 294.994690,409.405518 
	C295.001526,410.883240 295.013702,411.955414 295.025879,413.027618 
	C294.549744,413.337067 294.073608,413.646515 293.301025,413.977966 
	C289.778137,410.900879 286.551666,407.801758 283.167175,404.420288 
z"/>
<path fill="#C9CCCF" opacity="1.000000" stroke="none" 
	d="
M295.362732,412.985626 
	C295.013702,411.955414 295.001526,410.883240 294.990723,409.409790 
	C296.494720,409.157898 297.997284,409.307281 299.756409,409.730499 
	C298.575165,410.984131 297.137360,411.963867 295.362732,412.985626 
z"/>
<path fill="#C9CCCF" opacity="1.000000" stroke="none" 
	d="
M337.216919,387.898773 
	C337.103943,387.688477 337.294250,387.425964 337.787415,387.110779 
	C337.902496,387.322388 337.712433,387.585175 337.216919,387.898773 
z"/>
<path fill="#A1A4A7" opacity="1.000000" stroke="none" 
	d="
M249.960541,82.223953 
	C248.274826,83.140144 246.595352,83.650490 244.308578,83.919746 
	C241.876450,83.851952 240.054459,84.114082 238.225952,84.172478 
	C236.542374,84.226234 234.128235,84.739265 233.304596,83.860657 
	C231.129944,81.540810 229.643631,78.575668 227.883286,75.867424 
	C228.118271,75.389397 228.353256,74.911369 228.805969,74.273911 
	C230.468002,73.481422 231.912292,72.848358 233.659760,72.045189 
	C237.706375,69.900917 241.449814,67.926765 245.555817,65.924942 
	C247.267883,71.204231 248.617340,76.511177 249.960541,82.223953 
z"/>
<path fill="#46494A" opacity="1.000000" stroke="none" 
	d="
M398.487335,217.026489 
	C398.084137,213.644150 398.048889,210.258408 398.404907,206.354660 
	C398.587097,204.573441 398.378021,203.310226 398.168976,202.047012 
	C398.111908,194.124817 397.789093,186.193161 398.070679,178.283020 
	C398.367249,169.950546 395.251648,163.956238 387.707825,160.257645 
	C385.800415,159.322479 384.082855,158.000137 382.205719,156.253815 
	C380.594788,152.443207 379.879974,148.089981 377.345062,146.265396 
	C372.159637,142.533020 372.626160,138.328278 374.034790,133.415054 
	C376.768982,134.684860 379.503174,135.954651 382.599365,137.371735 
	C389.302979,141.419617 395.505188,145.574921 402.027496,149.145462 
	C407.943878,152.384293 411.658386,157.117599 413.928589,163.658646 
	C414.037018,189.343521 413.997223,214.703812 413.937561,240.532516 
	C408.437317,238.444717 408.985443,232.617844 407.041504,228.171417 
	C405.132629,223.805222 404.367584,218.704971 398.487335,217.026489 
z"/>
<path fill="#5B5E5F" opacity="1.000000" stroke="none" 
	d="
M398.114410,268.011536 
	C398.083893,260.987701 398.053375,253.963852 398.074585,246.474487 
	C403.243500,245.985611 402.479645,250.659943 403.837097,253.446716 
	C407.219543,260.390900 410.244232,267.509369 413.677551,274.759705 
	C413.950867,277.030212 413.959137,279.098816 413.715942,281.790283 
	C413.608551,283.266266 413.752594,284.119476 413.896637,284.972656 
	C413.896637,284.972656 414.003998,284.997437 414.059875,285.000458 
	C414.059204,291.665924 414.002625,298.328339 413.656281,305.161011 
	C412.064117,298.953247 411.137665,292.466156 409.329773,286.234833 
	C408.084869,281.943848 405.872955,277.858673 403.601349,273.968781 
	C402.271484,271.691559 399.975677,269.978424 398.114410,268.011536 
z"/>
<path fill="#56595A" opacity="1.000000" stroke="none" 
	d="
M373.823547,133.197845 
	C372.626160,138.328278 372.159637,142.533020 377.345062,146.265396 
	C379.879974,148.089981 380.594788,152.443207 382.011902,155.984100 
	C373.029633,151.248932 364.168854,146.181595 355.113037,140.889221 
	C356.892426,135.167236 351.979614,131.310349 351.357971,126.372345 
	C351.231812,125.370461 348.461151,124.701477 346.634094,123.732979 
	C346.634094,122.332458 346.634094,120.306007 346.896545,118.054222 
	C355.976776,122.879471 364.794525,127.930046 373.823547,133.197845 
z"/>
<path fill="#717474" opacity="1.000000" stroke="none" 
	d="
M323.052521,122.141655 
	C319.209930,120.329765 315.786774,118.448868 312.414368,116.113037 
	C313.248566,114.465111 314.032043,113.272125 314.993713,111.807793 
	C308.297028,108.456284 312.491516,102.492676 311.199799,97.840271 
	C313.684814,99.004555 316.169800,100.168839 318.831787,101.615936 
	C319.495911,106.273865 322.456451,107.177490 326.582764,107.011742 
	C326.292877,110.728333 323.236816,114.137886 325.822296,118.350281 
	C326.161102,118.902252 324.309204,120.798843 323.052521,122.141655 
z"/>
<path fill="#797B7E" opacity="1.000000" stroke="none" 
	d="
M311.164185,97.850380 
	C312.491516,102.492676 308.297028,108.456284 314.993713,111.807793 
	C314.032043,113.272125 313.248566,114.465111 312.191833,115.851181 
	C307.056213,113.299530 302.193878,110.554779 297.131989,107.548302 
	C299.504486,101.291222 298.076508,95.486710 296.056152,89.314445 
	C299.155792,90.498138 302.293182,92.076035 305.836884,94.055183 
	C306.458954,94.723663 306.734039,94.896584 307.068420,94.975197 
	C307.068420,94.975197 307.006409,94.995728 307.131805,95.207939 
	C307.561523,95.603165 307.865875,95.786171 308.170197,95.969185 
	C308.170197,95.969185 308.593079,95.990440 308.847107,96.339378 
	C309.761780,97.098503 310.422455,97.508698 311.083099,97.918884 
	C311.083099,97.918884 311.128601,97.860497 311.164185,97.850380 
z"/>
<path fill="#A1A4A7" opacity="1.000000" stroke="none" 
	d="
M380.004456,346.061127 
	C384.095917,343.360992 388.187378,340.660858 392.672607,338.215698 
	C396.945892,342.642303 398.450287,347.612366 398.027954,353.230133 
	C393.935547,355.471497 389.843170,357.712830 385.117676,359.763000 
	C382.991180,355.068237 381.497833,350.564697 380.004456,346.061127 
z"/>
<path fill="#AFB2B4" opacity="1.000000" stroke="none" 
	d="
M379.654175,346.059814 
	C381.497833,350.564697 382.991180,355.068237 384.754944,359.831055 
	C382.327057,361.888977 379.682434,363.779297 376.889252,365.416016 
	C376.262543,365.783264 374.411346,365.453979 374.321259,365.121246 
	C373.663269,362.690155 373.120941,360.191772 372.917236,357.684143 
	C372.727936,355.354248 373.002686,352.986633 373.015686,350.242340 
	C375.073456,348.585510 377.188660,347.321991 379.654175,346.059814 
z"/>
<path fill="#8C8E91" opacity="1.000000" stroke="none" 
	d="
M398.307648,353.047821 
	C398.450287,347.612366 396.945892,342.642303 393.002136,338.093475 
	C394.399017,335.539276 395.860107,333.362305 397.845886,331.334595 
	C398.907684,332.916168 400.228760,334.630859 399.833771,335.727448 
	C398.684723,338.917389 400.785034,340.381775 402.322357,342.360626 
	C403.716034,344.154572 404.805939,346.184509 406.029755,348.110413 
	C404.479034,349.201202 402.928345,350.292023 401.188232,351.638062 
	C400.194977,352.217346 399.391144,352.541412 398.307648,353.047821 
z"/>
<path fill="#AFB2B4" opacity="1.000000" stroke="none" 
	d="
M371.454102,354.531067 
	C371.423187,354.477814 371.485016,354.584290 371.454102,354.531067 
z"/>
<path fill="#AFB2B4" opacity="1.000000" stroke="none" 
	d="
M227.606110,75.912796 
	C229.643631,78.575668 231.129944,81.540810 233.304596,83.860657 
	C234.128235,84.739265 236.542374,84.226234 238.225952,84.172478 
	C240.054459,84.114082 241.876450,83.851952 243.939285,83.991386 
	C239.774445,86.971397 235.371597,89.638680 230.635422,92.441528 
	C230.105377,92.312752 229.903549,91.813866 229.712723,91.818047 
	C223.365082,91.956940 219.277969,87.398224 214.171600,84.224297 
	C214.530731,83.466469 215.117996,82.978127 215.874908,82.254585 
	C218.709076,80.670387 221.373611,79.321381 224.673584,77.876587 
	C225.535431,77.476028 225.761871,77.171265 225.988297,76.866501 
	C226.435181,76.563728 226.882065,76.260948 227.606110,75.912796 
z"/>
<path fill="#56595A" opacity="1.000000" stroke="none" 
	d="
M189.967316,385.092346 
	C202.216187,392.185333 214.465042,399.278320 226.939270,406.635681 
	C226.432816,408.541016 225.701035,410.181976 224.969254,411.822968 
	C225.440598,411.636292 225.911957,411.449615 226.383316,411.262939 
	C228.494980,414.051453 230.646347,416.810974 232.708145,419.635895 
	C235.235092,423.098145 237.537430,426.741852 240.297592,430.001648 
	C240.850128,430.654205 243.023743,429.934143 244.434860,429.847931 
	C245.008102,431.342224 245.631592,432.967529 246.100174,434.825928 
	C238.510910,431.086182 230.974548,427.291168 223.665359,423.099976 
	C211.795334,416.293549 200.101929,409.179871 188.279633,402.289093 
	C181.142365,398.129028 173.902496,394.145020 166.358932,390.032013 
	C161.210785,387.086090 156.412430,384.190033 151.386810,380.772491 
	C153.253143,379.722839 156.834732,378.250427 157.196869,378.821075 
	C159.410324,382.309082 161.557846,380.233521 164.034561,379.653809 
	C165.710052,379.261688 167.763412,379.749481 169.454773,380.369843 
	C171.092133,380.970398 172.482635,382.243988 174.560989,383.600037 
	C175.485550,385.222198 176.878937,387.666901 177.546906,388.838837 
	C182.032730,388.312378 185.132599,387.948578 188.601852,387.541412 
	C188.769104,387.241425 189.368210,386.166901 189.967316,385.092346 
z"/>
<path fill="#5B5E5F" opacity="1.000000" stroke="none" 
	d="
M189.621216,384.996948 
	C189.368210,386.166901 188.769104,387.241425 188.601852,387.541412 
	C185.132599,387.948578 182.032730,388.312378 177.546906,388.838837 
	C176.878937,387.666901 175.485550,385.222198 174.560989,383.600037 
	C172.482635,382.243988 171.092133,380.970398 169.454773,380.369843 
	C167.763412,379.749481 165.710052,379.261688 164.034561,379.653809 
	C161.557846,380.233521 159.410324,382.309082 157.196869,378.821075 
	C156.834732,378.250427 153.253143,379.722839 151.085083,380.609863 
	C142.790222,376.167908 134.569824,371.367126 126.425652,366.041565 
	C127.789711,358.095215 128.827255,357.193817 133.939789,361.052795 
	C137.512344,363.749420 140.582687,363.443665 144.066803,362.252869 
	C148.196350,367.718933 150.775818,368.392548 155.446762,365.355225 
	C163.903427,370.256256 172.358002,375.160950 180.817917,380.056335 
	C183.629944,381.683563 186.455673,383.287109 189.621216,384.996948 
z"/>
<path fill="#646667" opacity="1.000000" stroke="none" 
	d="
M155.233521,365.112183 
	C150.775818,368.392548 148.196350,367.718933 144.066803,362.252869 
	C140.582687,363.443665 137.512344,363.749420 133.939789,361.052795 
	C128.827255,357.193817 127.789711,358.095215 126.209503,365.778687 
	C119.694069,362.235748 113.471016,358.430908 107.065308,354.336029 
	C109.687614,352.568390 112.442261,350.980225 115.323036,349.669220 
	C116.427643,349.166473 117.843849,349.064240 119.075981,349.190430 
	C121.078133,349.395508 123.032455,350.047729 125.033752,350.290131 
	C125.940331,350.399902 126.911133,349.979523 127.912689,349.469482 
	C132.619278,352.126740 137.174835,355.270172 141.939957,358.055054 
	C146.179443,360.532776 150.651093,362.613312 155.233521,365.112183 
z"/>
<path fill="#A1A4A7" opacity="1.000000" stroke="none" 
	d="
M263.136963,414.007690 
	C266.833466,411.665863 270.884766,409.375854 275.265991,406.984833 
	C280.299927,408.514984 283.245697,412.135345 284.779236,416.495361 
	C286.102936,420.258759 282.239380,420.726257 279.163147,421.912109 
	C276.647797,420.332001 275.079010,418.063751 272.985016,417.361450 
	C270.220398,416.434174 268.837921,411.930969 264.922455,414.156677 
	C264.445557,414.124298 263.968628,414.091919 263.136963,414.007690 
z"/>
<path fill="#8C8E91" opacity="1.000000" stroke="none" 
	d="
M265.012970,414.482605 
	C268.837921,411.930969 270.220398,416.434174 272.985016,417.361450 
	C275.079010,418.063751 276.647797,420.332001 278.806580,421.957764 
	C278.361420,422.660431 277.559998,423.308777 276.445984,423.989044 
	C274.131012,422.686401 271.998749,421.507324 270.162750,419.973602 
	C268.322388,418.436188 266.777740,416.544800 265.012970,414.482605 
z"/>
<path fill="#717474" opacity="1.000000" stroke="none" 
	d="
M311.076355,97.591827 
	C310.422455,97.508698 309.761780,97.098503 309.056580,96.370041 
	C309.697906,96.456108 310.383728,96.860435 311.076355,97.591827 
z"/>
<path fill="#717474" opacity="1.000000" stroke="none" 
	d="
M308.036682,95.737747 
	C307.865875,95.786171 307.561523,95.603165 307.139221,95.176132 
	C307.315186,95.123512 307.609192,95.314911 308.036682,95.737747 
z"/>
<path fill="#717474" opacity="1.000000" stroke="none" 
	d="
M306.962891,94.746323 
	C306.734039,94.896584 306.458954,94.723663 306.127075,94.238701 
	C306.293091,94.186462 306.575195,94.351959 306.962891,94.746323 
z"/>
<path fill="#646667" opacity="1.000000" stroke="none" 
	d="
M398.061890,268.475891 
	C399.975677,269.978424 402.271484,271.691559 403.601349,273.968781 
	C405.872955,277.858673 408.084869,281.943848 409.329773,286.234833 
	C411.137665,292.466156 412.064117,298.953247 413.631256,305.623566 
	C413.906769,312.595581 413.917511,319.275238 413.637817,326.123718 
	C412.555511,319.912567 411.815918,313.525330 410.919098,307.160187 
	C410.773041,306.123322 409.987762,305.149628 409.401886,304.206360 
	C407.061310,300.438049 404.610291,296.736389 402.343781,292.924652 
	C400.822601,290.366333 399.543091,287.664337 398.155426,285.026642 
	C398.106750,279.664520 398.058075,274.302368 398.061890,268.475891 
z"/>
<path fill="#717474" opacity="1.000000" stroke="none" 
	d="
M398.102905,285.489777 
	C399.543091,287.664337 400.822601,290.366333 402.343781,292.924652 
	C404.610291,296.736389 407.061310,300.438049 409.401886,304.206360 
	C409.987762,305.149628 410.773041,306.123322 410.919098,307.160187 
	C411.815918,313.525330 412.555511,319.912567 413.617188,326.583862 
	C413.929291,328.004211 413.971619,329.133209 414.065247,330.683105 
	C414.093109,332.141174 414.069672,333.178345 413.649597,334.532959 
	C412.535370,333.438934 411.711548,332.070557 411.118927,330.608459 
	C408.783600,324.846680 406.671722,318.988800 404.157928,313.307709 
	C403.135895,310.997894 401.013306,309.377167 401.643951,306.203552 
	C401.866730,305.082642 399.383881,303.424042 398.136292,302.010895 
	C398.107666,296.658234 398.079041,291.305573 398.102905,285.489777 
z"/>
<path fill="#56595A" opacity="1.000000" stroke="none" 
	d="
M413.923706,284.607849 
	C413.752594,284.119476 413.608551,283.266266 413.694214,282.231995 
	C413.932831,282.781616 413.941803,283.512299 413.923706,284.607849 
z"/>
<path fill="#797B7E" opacity="1.000000" stroke="none" 
	d="
M398.072083,302.467224 
	C399.383881,303.424042 401.866730,305.082642 401.643951,306.203552 
	C401.013306,309.377167 403.135895,310.997894 404.157928,313.307709 
	C406.671722,318.988800 408.783600,324.846680 411.118927,330.608459 
	C411.711548,332.070557 412.535370,333.438934 413.614380,334.921997 
	C412.924927,337.600616 411.874023,340.207642 410.245056,342.802887 
	C408.930237,341.239288 408.162140,339.701324 407.468536,338.130402 
	C407.055359,337.194611 406.985229,335.553802 406.375977,335.343140 
	C399.723480,333.043091 401.212219,327.772156 401.084656,322.688751 
	C401.011475,319.772675 399.151459,316.901428 398.095886,314.010010 
	C398.066528,310.314545 398.037170,306.619049 398.072083,302.467224 
z"/>
<path fill="#828486" opacity="1.000000" stroke="none" 
	d="
M398.046631,314.474426 
	C399.151459,316.901428 401.011475,319.772675 401.084656,322.688751 
	C401.212219,327.772156 399.723480,333.043091 406.375977,335.343140 
	C406.985229,335.553802 407.055359,337.194611 407.468536,338.130402 
	C408.162140,339.701324 408.930237,341.239288 409.962952,343.009644 
	C409.044220,344.746918 407.829559,346.265686 406.322327,347.947418 
	C404.805939,346.184509 403.716034,344.154572 402.322357,342.360626 
	C400.785034,340.381775 398.684723,338.917389 399.833771,335.727448 
	C400.228760,334.630859 398.907684,332.916168 398.154480,331.176544 
	C397.958038,325.559113 397.977722,320.248993 398.046631,314.474426 
z"/>
<path fill="#797B7E" opacity="1.000000" stroke="none" 
	d="
M94.003792,345.002472 
	C93.986122,345.201813 93.968460,345.401154 93.903885,345.898682 
	C93.595848,345.989288 93.334732,345.781677 92.927200,345.369843 
	C92.982368,345.130676 93.183952,345.095703 93.692749,345.030365 
	C93.999962,345.000000 94.003792,345.002472 94.003792,345.002472 
z"/>
<path fill="#A1A4A7" opacity="1.000000" stroke="none" 
	d="
M225.743332,77.003906 
	C225.761871,77.171265 225.535431,77.476028 225.030365,77.876007 
	C225.000610,77.694580 225.249496,77.417946 225.743332,77.003906 
z"/>
<path fill="#F4F3F3" opacity="1.000000" stroke="none" 
	d="
M184.028229,290.912964 
	C183.442123,290.841858 182.856003,290.770721 182.084564,290.088715 
	C179.473221,284.164246 174.126419,281.339905 169.939270,283.160156 
	C169.066345,282.608337 168.193420,282.056519 167.165649,280.849701 
	C166.575943,279.102600 166.141083,278.010529 165.706223,276.918427 
	C165.372742,277.572449 165.039261,278.226501 164.705780,278.880524 
	C162.356384,276.421021 160.006989,273.961487 157.685577,270.772980 
	C156.676392,269.042328 155.639206,268.040649 154.602036,267.039001 
	C151.457733,260.260895 148.313431,253.482803 145.375717,246.138794 
	C145.219681,244.704681 144.857056,243.836472 144.494431,242.968277 
	C139.649765,220.292816 142.131104,198.801498 156.075104,179.731995 
	C165.300186,167.115997 177.292511,157.537369 193.118027,154.889297 
	C219.865768,150.413651 247.768097,158.636978 261.122223,187.986816 
	C253.486130,191.743393 245.890106,195.636810 238.106277,199.109238 
	C237.145050,199.538055 234.590500,198.116943 233.775345,196.888687 
	C224.238739,182.519562 206.507889,177.411102 191.337479,185.101624 
	C181.912872,189.879364 177.118576,198.472565 174.405884,208.120621 
	C171.238281,219.386597 171.346848,230.875732 173.808990,242.678925 
	C172.827377,243.787872 172.092072,244.515884 171.356750,245.243896 
	C172.926697,246.154510 174.496658,247.065155 176.066620,247.975800 
	C179.933853,254.694855 184.126740,261.125427 191.520920,264.531677 
	C193.141174,265.278076 194.880814,265.765289 196.831970,266.995056 
	C197.790054,267.554413 198.481613,267.490631 199.173187,267.426880 
	C203.514801,267.385254 207.856415,267.343658 212.667053,267.730011 
	C214.410965,268.691925 216.365936,270.019501 216.837173,269.615662 
	C218.447723,268.235474 219.536682,266.246643 220.824615,264.489990 
	C221.169922,264.190796 221.515259,263.891602 222.448120,263.796326 
	C227.227615,265.900330 226.854095,262.834503 227.010925,260.345551 
	C229.414551,257.016022 231.818176,253.686523 234.957397,250.115982 
	C236.268280,249.693115 236.843521,249.511292 237.418777,249.329453 
	C237.418777,249.329453 237.570343,249.378830 237.467331,249.794800 
	C238.811646,255.220306 241.468262,256.538239 249.891937,256.425629 
	C250.229568,256.401947 250.512283,256.515259 250.879486,257.360291 
	C251.874130,262.375610 255.139709,260.770752 257.803925,260.669220 
	C257.803925,260.669220 257.930573,260.724426 257.959442,261.168274 
	C257.343750,263.064697 256.713074,264.523590 256.051941,265.968567 
	C254.433350,269.506195 252.800659,273.037354 251.173630,276.571106 
	C250.370377,277.445679 249.567139,278.320251 248.317459,278.957031 
	C247.246750,278.309265 246.622467,277.899323 245.998169,277.489380 
	C245.672882,279.107422 245.347595,280.725494 245.022339,282.343536 
	C245.022339,282.343536 244.953842,282.439087 244.525040,282.359955 
	C243.065094,283.226562 242.033951,284.172333 241.002808,285.118103 
	C238.911713,286.431732 236.820618,287.745392 234.157654,288.802612 
	C232.775467,289.242645 231.965164,289.939117 231.154861,290.635590 
	C229.070053,291.396210 226.985245,292.156799 224.462112,292.455078 
	C223.382828,291.528870 222.741867,291.064972 222.100891,290.601105 
	C221.460022,291.688141 220.819168,292.775146 220.178299,293.862183 
	C219.954681,293.703552 219.731049,293.544891 219.277710,292.948730 
	C218.880142,293.014862 218.712280,293.518494 218.544403,294.022125 
	C217.947968,294.236938 217.351501,294.451782 216.378967,294.196838 
	C213.595749,290.349579 212.336517,292.743530 210.994888,294.723145 
	C210.243225,294.814423 209.491562,294.905731 208.305435,294.576996 
	C204.374756,290.430237 202.917007,290.508728 199.989990,294.581268 
	C198.517822,294.558746 197.045654,294.536255 195.222870,293.918945 
	C191.813065,290.022186 188.295624,288.781189 184.028229,290.912964 
M167.515182,275.421997 
	C167.515182,275.421997 167.572922,275.522736 167.515182,275.421997 
M254.484009,262.577637 
	C254.484009,262.577637 254.426773,262.477936 254.484009,262.577637 
z"/>
<path fill="#F7F6F6" opacity="1.000000" stroke="none" 
	d="
M273.514709,287.958893 
	C273.433167,284.284119 273.351593,280.609314 273.715546,276.335571 
	C273.925690,270.813293 273.690277,265.889954 273.454865,260.966614 
	C273.395081,259.913605 273.335297,258.860596 273.722382,257.269714 
	C274.434540,255.981491 274.929901,255.231628 274.931549,254.480698 
	C274.974152,235.076050 274.989624,215.671173 274.902344,196.266830 
	C274.897400,195.164078 273.977966,194.065414 273.484161,192.964859 
	C273.408478,192.534973 273.332794,192.105087 273.683350,191.213364 
	C273.899963,186.822708 273.690308,182.893875 273.480652,178.965057 
	C273.417297,178.533371 273.353943,178.101700 273.734070,177.199341 
	C274.395752,171.846939 274.778168,166.964417 274.754761,162.083832 
	C274.744781,160.010147 273.884613,157.940506 273.410858,155.869034 
	C273.966248,155.265152 274.515381,154.141754 275.077972,154.134979 
	C284.180542,154.025299 293.284882,154.057388 302.483521,154.057388 
	C302.483521,188.017685 302.483521,221.550537 302.034363,255.630646 
	C299.153992,259.323181 296.145782,262.212433 294.579590,265.741608 
	C293.965118,267.126251 296.580048,269.944061 297.911072,272.462677 
	C295.792206,272.877228 294.093414,273.209564 292.233826,273.573395 
	C292.309296,279.627319 290.566864,283.818298 283.576294,283.443024 
	C282.642120,283.392883 281.022949,284.821899 280.748474,285.842346 
	C279.865082,289.126312 277.564758,289.195801 274.864563,288.812317 
	C274.342407,288.383698 273.928589,288.171295 273.514709,287.958893 
z"/>
<path fill="#F1F0F0" opacity="1.000000" stroke="none" 
	d="
M274.972839,289.028473 
	C277.564758,289.195801 279.865082,289.126312 280.748474,285.842346 
	C281.022949,284.821899 282.642120,283.392883 283.576294,283.443024 
	C290.566864,283.818298 292.309296,279.627319 292.233826,273.573395 
	C294.093414,273.209564 295.792206,272.877228 297.911072,272.462677 
	C296.580048,269.944061 293.965118,267.126251 294.579590,265.741608 
	C296.145782,262.212433 299.153992,259.323181 301.888977,256.075317 
	C302.299835,257.368988 302.406891,258.765167 302.104980,260.712952 
	C301.879333,262.537476 302.062592,263.810486 302.245819,265.083466 
	C302.422058,265.762512 302.598267,266.441528 303.079102,267.761108 
	C304.333221,268.595764 305.275116,268.900269 306.233398,268.966095 
	C312.380096,269.388367 318.746643,268.910492 324.612915,270.406616 
	C329.540680,271.663330 333.698212,271.785370 338.539520,270.302124 
	C344.881653,268.359192 349.347351,272.126617 350.358856,279.057007 
	C350.513672,280.117676 351.251312,281.093292 351.745758,282.165375 
	C350.492706,282.921539 349.363190,283.551331 348.287048,284.261963 
	C344.610962,286.689453 342.427460,290.614288 336.719940,291.038818 
	C333.606659,291.270355 331.336609,289.879242 328.650635,290.040131 
	C323.427765,290.352936 318.185638,290.529144 313.002441,291.172516 
	C311.877930,291.312042 310.968201,293.181732 309.959534,294.254547 
	C298.138519,294.385071 286.317535,294.515594 274.351624,294.238892 
	C274.206696,293.831635 274.337860,293.635406 274.536194,293.502045 
	C274.816559,292.893372 274.898621,292.418060 274.978760,291.578064 
	C274.975494,290.485107 274.974152,289.756775 274.972839,289.028473 
z"/>
<path fill="#C1BFBD" opacity="1.000000" stroke="none" 
	d="
M213.692749,327.836578 
	C214.688980,328.463623 215.685211,329.090668 216.948730,330.319153 
	C219.477142,332.835175 219.960190,331.344727 220.003204,329.386627 
	C220.078903,325.941742 219.869553,322.481995 220.117661,319.052948 
	C220.253891,317.170197 221.080597,315.337372 221.595978,313.482056 
	C223.376038,313.977875 225.156082,314.473724 226.936127,314.969574 
	C227.016754,330.545868 227.121475,346.122162 227.119431,361.698456 
	C227.119308,362.654938 226.283432,364.423492 225.823364,364.427795 
	C223.774734,364.447113 221.641907,364.198181 219.706879,363.548096 
	C218.875381,363.268707 218.450836,361.778015 217.704544,360.626495 
	C210.503281,365.519989 203.032288,367.179718 195.096069,361.159058 
	C194.462921,359.446808 193.951263,358.448303 193.502426,357.422333 
	C192.477219,355.078979 190.560104,352.679962 190.665253,350.379456 
	C190.893600,345.383789 191.934647,340.380859 193.116196,335.495209 
	C193.583710,333.562073 194.909561,331.084503 196.533829,330.320862 
	C201.903519,327.796326 207.592819,325.979218 213.692749,327.836578 
M206.227859,357.905823 
	C210.969910,360.002502 214.684784,358.159821 217.728592,354.623871 
	C220.754227,351.109009 220.899551,344.247589 217.928391,340.148865 
	C216.147537,338.087219 214.751266,335.321716 212.512344,334.098480 
	C206.273392,330.689819 200.245178,333.092316 198.025650,339.423462 
	C195.411514,346.880219 198.357117,356.781982 206.227859,357.905823 
M194.380264,353.343964 
	C194.693054,353.300903 195.005844,353.257812 195.318634,353.214752 
	C194.984772,353.125061 194.650909,353.035370 194.380264,353.343964 
z"/>
<path fill="#BEBCBA" opacity="1.000000" stroke="none" 
	d="
M245.056992,347.259247 
	C244.511658,352.726654 247.715805,355.377991 252.789734,357.429443 
	C255.674957,357.853485 258.194336,358.180481 260.532349,357.672638 
	C263.677002,356.989532 266.681732,355.662354 269.746521,354.611664 
	C269.995789,354.641479 270.142731,354.780029 270.184570,355.483398 
	C270.387665,356.272339 270.593506,356.605255 270.799377,356.938141 
	C266.330505,366.998566 245.864395,369.166992 237.909302,356.167023 
	C237.307510,355.183594 236.802246,354.141052 236.666046,352.622101 
	C237.333542,351.963989 237.587097,351.809784 237.840668,351.655579 
	C237.692245,351.534637 237.433044,351.291687 237.411896,351.310944 
	C237.073853,351.617859 236.766251,351.958282 236.451706,352.291077 
	C236.349304,352.056488 236.246887,351.821869 236.539276,350.900635 
	C236.969894,348.065277 236.984116,345.915924 237.045258,343.767853 
	C237.334610,333.604462 243.052292,327.865723 253.251053,327.677277 
	C256.827698,327.611206 260.410797,327.893646 263.990936,328.016937 
	C270.408173,331.240021 273.002380,336.889313 273.234894,343.627930 
	C273.277252,344.855713 270.899323,346.166962 269.099213,346.983459 
	C265.687317,346.730286 262.814819,346.933350 259.942352,347.136414 
	C259.213959,347.226929 258.485535,347.317413 257.132141,346.956146 
	C252.690430,346.756012 248.873703,347.007629 245.056992,347.259247 
M255.783295,340.911865 
	C256.860992,340.977020 257.938660,341.042145 259.133575,341.774231 
	C260.417450,341.558319 261.701294,341.342407 263.570526,340.743805 
	C262.876251,335.317505 259.520782,332.433136 253.937622,332.463379 
	C248.755676,332.491455 245.935989,335.199707 245.118378,341.161713 
	C247.107086,341.161713 249.062134,341.161713 251.158203,341.819946 
	C252.434998,341.575836 253.711792,341.331696 255.783295,340.911865 
z"/>
<path fill="#BEBCBA" opacity="1.000000" stroke="none" 
	d="
M315.061249,328.010742 
	C310.724365,339.093201 306.538055,350.239899 301.869354,361.180786 
	C301.251526,362.628632 298.238312,363.474152 296.217407,363.754242 
	C294.893219,363.937775 292.522247,362.968903 292.046143,361.888031 
	C286.874725,350.147797 281.985718,338.283203 276.986450,326.373322 
	C288.068695,325.036865 286.251953,325.396332 289.195435,333.064026 
	C291.616974,339.372070 294.203125,345.616882 297.447693,351.896545 
	C299.064178,350.637268 300.263672,349.487122 300.780640,348.085297 
	C303.214935,341.484772 305.462036,334.815186 307.831451,328.010742 
	C310.433655,328.010742 312.747467,328.010742 315.061249,328.010742 
M297.478363,354.409546 
	C297.538116,354.178406 297.597839,353.947235 297.657593,353.716095 
	C297.510742,353.865479 297.363861,354.014832 297.478363,354.409546 
z"/>
<path fill="#E6E6E6" opacity="1.000000" stroke="none" 
	d="
M310.407349,294.408569 
	C310.968201,293.181732 311.877930,291.312042 313.002441,291.172516 
	C318.185638,290.529144 323.427765,290.352936 328.650635,290.040131 
	C331.336609,289.879242 333.606659,291.270355 336.719940,291.038818 
	C342.427460,290.614288 344.610962,286.689453 348.287048,284.261963 
	C349.363190,283.551331 350.492706,282.921539 351.745758,282.165375 
	C351.251312,281.093292 350.513672,280.117676 350.358856,279.057007 
	C349.347351,272.126617 344.881653,268.359192 338.539520,270.302124 
	C333.698212,271.785370 329.540680,271.663330 324.612915,270.406616 
	C318.746643,268.910492 312.380096,269.388367 306.233398,268.966095 
	C305.275116,268.900269 304.333221,268.595764 303.175720,268.100952 
	C319.889801,267.574615 336.811798,267.345093 353.734009,267.127075 
	C356.498199,267.091461 358.023956,268.121765 357.930054,271.259125 
	C357.746399,277.398315 357.746643,283.547089 357.845367,289.689087 
	C357.904327,293.358032 356.245056,294.609039 352.701294,294.583588 
	C338.753235,294.483368 324.803955,294.554840 310.407349,294.408569 
z"/>
<path fill="#C9CCCF" opacity="1.000000" stroke="none" 
	d="
M213.477371,327.521698 
	C207.592819,325.979218 201.903519,327.796326 196.533829,330.320862 
	C194.909561,331.084503 193.583710,333.562073 193.116196,335.495209 
	C191.934647,340.380859 190.893600,345.383789 190.665253,350.379456 
	C190.560104,352.679962 192.477219,355.078979 193.502426,357.422333 
	C193.951263,358.448303 194.462921,359.446808 194.932495,360.848480 
	C187.941345,356.127075 185.468430,345.243561 189.092743,335.597595 
	C191.712204,328.625977 198.759140,324.067108 206.341202,324.860535 
	C208.704086,325.107819 210.958130,326.395447 213.477371,327.521698 
z"/>
<path fill="#E6E6E6" opacity="1.000000" stroke="none" 
	d="
M273.361694,193.421387 
	C273.977966,194.065414 274.897400,195.164078 274.902344,196.266830 
	C274.989624,215.671173 274.974152,235.076050 274.931549,254.480698 
	C274.929901,255.231628 274.434540,255.981491 273.819885,256.884094 
	C273.393402,235.983551 273.316315,214.930740 273.361694,193.421387 
z"/>
<path fill="#D5D8DA" opacity="1.000000" stroke="none" 
	d="
M263.754333,327.784027 
	C260.410797,327.893646 256.827698,327.611206 253.251053,327.677277 
	C243.052292,327.865723 237.334610,333.604462 237.045258,343.767853 
	C236.984116,345.915924 236.969894,348.065277 236.845245,350.668671 
	C233.350296,344.021942 234.829849,337.185211 239.176117,331.357910 
	C243.505890,325.552673 249.743896,323.230988 257.106384,325.619995 
	C259.228912,326.308746 261.379852,326.909821 263.754333,327.784027 
z"/>
<path fill="#D5D8DA" opacity="1.000000" stroke="none" 
	d="
M315.123352,327.590454 
	C312.747467,328.010742 310.433655,328.010742 307.831451,328.010742 
	C305.462036,334.815186 303.214935,341.484772 300.780640,348.085297 
	C300.263672,349.487122 299.064178,350.637268 297.781250,351.898804 
	C299.747345,345.045868 302.101654,338.194122 304.478058,331.350037 
	C306.577271,325.304230 308.774414,324.454926 315.123352,327.590454 
z"/>
<path fill="#D5D8DA" opacity="1.000000" stroke="none" 
	d="
M227.036407,314.690369 
	C225.156082,314.473724 223.376038,313.977875 221.595978,313.482056 
	C221.080597,315.337372 220.253891,317.170197 220.117661,319.052948 
	C219.869553,322.481995 220.078903,325.941742 220.003204,329.386627 
	C219.960190,331.344727 219.477142,332.835175 217.086151,330.589111 
	C217.318481,327.324951 217.843964,324.400940 218.000275,321.457336 
	C218.182755,318.020508 218.042908,314.566589 218.042908,311.181702 
	C224.257416,309.379059 226.117111,310.067474 227.036407,314.690369 
z"/>
<path fill="#F1F0F0" opacity="1.000000" stroke="none" 
	d="
M170.096527,283.456390 
	C174.126419,281.339905 179.473221,284.164246 181.908203,289.847961 
	C178.029373,288.062927 174.141571,285.907776 170.096527,283.456390 
z"/>
<path fill="#F1F0F0" opacity="1.000000" stroke="none" 
	d="
M251.472107,276.379364 
	C252.800659,273.037354 254.433350,269.506195 256.051941,265.968567 
	C256.713074,264.523590 257.343750,263.064697 257.996857,261.226318 
	C260.739655,261.256958 261.249573,262.706055 259.751221,264.880219 
	C257.133514,268.678680 254.435120,272.421478 251.472107,276.379364 
z"/>
<path fill="#E6E6E6" opacity="1.000000" stroke="none" 
	d="
M273.315430,156.273041 
	C273.884613,157.940506 274.744781,160.010147 274.754761,162.083832 
	C274.778168,166.964417 274.395752,171.846939 273.830719,176.882965 
	C273.395905,170.250504 273.307953,163.463776 273.315430,156.273041 
z"/>
<path fill="#F1F0F0" opacity="1.000000" stroke="none" 
	d="
M249.624237,256.192413 
	C241.468262,256.538239 238.811646,255.220306 237.539276,249.829102 
	C241.595016,251.618011 245.475784,253.788605 249.624237,256.192413 
z"/>
<path fill="#DEDCDD" opacity="1.000000" stroke="none" 
	d="
M269.585205,354.272522 
	C266.681732,355.662354 263.677002,356.989532 260.532349,357.672638 
	C258.194336,358.180481 255.674957,357.853485 253.136932,357.548218 
	C255.973389,356.357178 258.873688,355.343597 261.856201,354.729095 
	C264.328461,354.219696 266.897675,354.180786 269.585205,354.272522 
z"/>
<path fill="#E6E6E6" opacity="1.000000" stroke="none" 
	d="
M273.337097,261.421875 
	C273.690277,265.889954 273.925690,270.813293 273.811218,275.886230 
	C273.380707,271.316254 273.299988,266.596680 273.337097,261.421875 
z"/>
<path fill="#F1F0F0" opacity="1.000000" stroke="none" 
	d="
M184.299973,291.157623 
	C188.295624,288.781189 191.813065,290.022186 194.935791,293.684448 
	C191.523468,293.163940 188.047592,292.283112 184.299973,291.157623 
z"/>
<path fill="#F1F0F0" opacity="1.000000" stroke="none" 
	d="
M220.464798,264.582703 
	C219.536682,266.246643 218.447723,268.235474 216.837173,269.615662 
	C216.365936,270.019501 214.410965,268.691925 213.140182,267.746216 
	C215.464523,266.448120 217.784760,265.561768 220.464798,264.582703 
z"/>
<path fill="#E6E6E6" opacity="1.000000" stroke="none" 
	d="
M273.361206,179.415192 
	C273.690308,182.893875 273.899963,186.822708 273.758728,190.891678 
	C273.352478,187.309662 273.297119,183.587509 273.361206,179.415192 
z"/>
<path fill="#F1F0F0" opacity="1.000000" stroke="none" 
	d="
M200.423187,294.697388 
	C202.917007,290.508728 204.374756,290.430237 207.937073,294.474121 
	C205.620911,294.798676 203.238663,294.806091 200.423187,294.697388 
z"/>
<path fill="#F1F0F0" opacity="1.000000" stroke="none" 
	d="
M176.057465,247.634888 
	C174.496658,247.065155 172.926697,246.154510 171.356750,245.243896 
	C172.092072,244.515884 172.827377,243.787872 173.921997,243.034851 
	C174.870316,244.437881 175.459305,245.865936 176.057465,247.634888 
z"/>
<path fill="#F1F0F0" opacity="1.000000" stroke="none" 
	d="
M257.562042,260.399597 
	C255.139709,260.770752 251.874130,262.375610 251.007599,257.557068 
	C253.104233,258.149445 255.212189,259.139709 257.562042,260.399597 
z"/>
<path fill="#F1F0F0" opacity="1.000000" stroke="none" 
	d="
M211.355774,294.825745 
	C212.336517,292.743530 213.595749,290.349579 216.060379,294.088562 
	C214.650803,294.609467 213.183746,294.768890 211.355774,294.825745 
z"/>
<path fill="#F1F0F0" opacity="1.000000" stroke="none" 
	d="
M220.382965,293.924133 
	C220.819168,292.775146 221.460022,291.688141 222.100891,290.601105 
	C222.741867,291.064972 223.382828,291.528870 224.076065,292.415283 
	C222.948090,293.220551 221.767853,293.603333 220.382965,293.924133 
z"/>
<path fill="#D5D8DA" opacity="1.000000" stroke="none" 
	d="
M245.512848,347.306274 
	C248.873703,347.007629 252.690430,346.756012 256.785431,346.818665 
	C253.365387,347.206360 249.667053,347.279816 245.512848,347.306274 
z"/>
<path fill="#F1F0F0" opacity="1.000000" stroke="none" 
	d="
M245.320984,282.223511 
	C245.347595,280.725494 245.672882,279.107422 245.998169,277.489380 
	C246.622467,277.899323 247.246750,278.309265 248.028320,279.054993 
	C247.330292,280.295013 246.474976,281.199249 245.320984,282.223511 
z"/>
<path fill="#F1F0F0" opacity="1.000000" stroke="none" 
	d="
M226.721100,260.470581 
	C226.854095,262.834503 227.227615,265.900330 222.680542,263.856384 
	C223.694031,262.673553 225.062653,261.634583 226.721100,260.470581 
z"/>
<path fill="#717474" opacity="1.000000" stroke="none" 
	d="
M102.001221,330.000000 
	C102.378540,328.042938 102.754631,326.085876 103.445671,324.048584 
	C103.840294,325.055145 103.919975,326.141907 103.718857,327.792297 
	C102.958717,328.903107 102.479378,329.450317 102.000046,329.997559 
	C102.000046,329.997559 102.000000,330.000000 102.001221,330.000000 
z"/>
<path fill="#E6E6E6" opacity="1.000000" stroke="none" 
	d="
M274.864532,288.812317 
	C274.974152,289.756775 274.975494,290.485107 274.774048,291.726379 
	C274.493500,292.704712 274.415680,293.170074 274.337860,293.635406 
	C274.337860,293.635406 274.206696,293.831635 274.114563,293.905365 
	C273.771027,292.230316 273.519592,290.481506 273.391479,288.345825 
	C273.928589,288.171295 274.342407,288.383698 274.864532,288.812317 
z"/>
<path fill="#797B7E" opacity="1.000000" stroke="none" 
	d="
M117.750656,342.784790 
	C116.426323,342.475555 114.867111,341.920410 113.281738,341.006775 
	C114.675644,341.278473 116.095711,341.908691 117.750656,342.784790 
z"/>
<path fill="#D5D8DA" opacity="1.000000" stroke="none" 
	d="
M260.390137,347.236237 
	C262.814819,346.933350 265.687317,346.730286 268.819366,346.843903 
	C266.331940,347.219086 263.584961,347.277588 260.390137,347.236237 
z"/>
<path fill="#E6E6E6" opacity="1.000000" stroke="none" 
	d="
M302.399750,264.765198 
	C302.062592,263.810486 301.879333,262.537476 301.972656,261.116333 
	C302.350708,262.127747 302.452209,263.287323 302.399750,264.765198 
z"/>
<path fill="#828486" opacity="1.000000" stroke="none" 
	d="
M102.056183,330.339600 
	C102.479378,329.450317 102.958717,328.903107 103.667168,328.199402 
	C104.366890,329.424866 104.837509,330.806824 105.389862,332.550903 
	C104.351837,332.169281 103.232079,331.425476 102.056183,330.339600 
z"/>
<path fill="#F1F0F0" opacity="1.000000" stroke="none" 
	d="
M154.701569,267.374817 
	C155.639206,268.040649 156.676392,269.042328 157.560349,270.482117 
	C156.538452,269.850372 155.669769,268.780518 154.701569,267.374817 
z"/>
<path fill="#56595A" opacity="1.000000" stroke="none" 
	d="
M398.118958,202.436035 
	C398.378021,203.310226 398.587097,204.573441 398.469971,205.897537 
	C398.118774,204.913971 398.093842,203.869507 398.118958,202.436035 
z"/>
<path fill="#F1F0F0" opacity="1.000000" stroke="none" 
	d="
M164.820557,279.125122 
	C165.039261,278.226501 165.372742,277.572449 165.706223,276.918427 
	C166.141083,278.010529 166.575943,279.102600 167.014450,280.570129 
	C166.323837,280.420258 165.629578,279.895020 164.820557,279.125122 
z"/>
<path fill="#F1F0F0" opacity="1.000000" stroke="none" 
	d="
M241.341660,285.078278 
	C242.033951,284.172333 243.065094,283.226562 244.490936,282.407867 
	C243.817276,283.369446 242.748901,284.203949 241.341660,285.078278 
z"/>
<path fill="#AFB2B4" opacity="1.000000" stroke="none" 
	d="
M103.867088,247.639923 
	C103.578751,247.046326 103.375648,246.079300 103.481766,245.049866 
	C103.844765,245.747131 103.898552,246.506821 103.867088,247.639923 
z"/>
<path fill="#E6E6E6" opacity="1.000000" stroke="none" 
	d="
M144.447922,243.283966 
	C144.857056,243.836472 145.219681,244.704681 145.357361,245.764099 
	C144.888748,245.170105 144.645081,244.384872 144.447922,243.283966 
z"/>
<path fill="#F1F0F0" opacity="1.000000" stroke="none" 
	d="
M231.493713,290.601746 
	C231.965164,289.939117 232.775467,289.242645 233.813507,288.823486 
	C233.305023,289.589813 232.568787,290.078857 231.493713,290.601746 
z"/>
<path fill="#F1F0F0" opacity="1.000000" stroke="none" 
	d="
M198.939362,267.263123 
	C198.481613,267.490631 197.790054,267.554413 197.049377,267.299927 
	C197.568695,267.020874 198.137100,267.060150 198.939362,267.263123 
z"/>
<path fill="#A1A4A7" opacity="1.000000" stroke="none" 
	d="
M103.875519,261.681793 
	C103.611511,261.371918 103.428879,260.725983 103.520096,260.031158 
	C103.848251,260.436768 103.902565,260.891235 103.875519,261.681793 
z"/>
<path fill="#717474" opacity="1.000000" stroke="none" 
	d="
M103.822769,321.692261 
	C103.558525,321.381287 103.375633,320.727753 103.458267,320.019043 
	C103.783897,320.425842 103.844009,320.887787 103.822769,321.692261 
z"/>
<path fill="#F1F0F0" opacity="1.000000" stroke="none" 
	d="
M237.238434,249.151611 
	C236.843521,249.511292 236.268280,249.693115 235.238342,249.896057 
	C235.541824,249.602676 236.299957,249.288223 237.238434,249.151611 
z"/>
<path fill="#D5D8DA" opacity="1.000000" stroke="none" 
	d="
M236.465195,352.316833 
	C236.766251,351.958282 237.073853,351.617859 237.411896,351.310944 
	C237.433044,351.291687 237.692245,351.534637 237.840668,351.655579 
	C237.587097,351.809784 237.333542,351.963989 236.774475,352.259003 
	C236.468979,352.399811 236.478683,352.342560 236.465195,352.316833 
z"/>
<path fill="#F1F0F0" opacity="1.000000" stroke="none" 
	d="
M218.872345,293.904907 
	C218.712280,293.518494 218.880142,293.014862 219.483261,292.592468 
	C219.679108,293.045044 219.439713,293.416351 218.872345,293.904907 
z"/>
<path fill="#DEDCDD" opacity="1.000000" stroke="none" 
	d="
M270.931152,356.569092 
	C270.593506,356.605255 270.387665,356.272339 270.148865,355.640442 
	C270.431580,355.627625 270.747253,355.913818 270.931152,356.569092 
z"/>
<path fill="#DEDCDD" opacity="1.000000" stroke="none" 
	d="
M158.537140,131.477295 
	C158.561005,131.521240 158.513290,131.433334 158.537140,131.477295 
z"/>
<path fill="#797B7E" opacity="1.000000" stroke="none" 
	d="
M93.997925,344.997925 
	C94.116852,344.581116 94.237808,344.166382 94.358765,343.751678 
	C94.370438,344.086121 94.382118,344.420563 94.198792,344.878723 
	C94.003792,345.002472 93.999962,345.000000 93.997925,344.997925 
z"/>
<path fill="#C9CCCF" opacity="1.000000" stroke="none" 
	d="
M294.952454,408.646851 
	C292.690491,407.909271 290.389069,406.810669 288.051331,405.348816 
	C290.314362,406.085632 292.613678,407.185730 294.952454,408.646851 
z"/>
<path fill="#F1F0F0" opacity="1.000000" stroke="none" 
	d="
M167.544052,275.472351 
	C167.572922,275.522736 167.515182,275.421997 167.544052,275.472351 
z"/>
<path fill="#F1F0F0" opacity="1.000000" stroke="none" 
	d="
M254.455383,262.527771 
	C254.426773,262.477936 254.484009,262.577637 254.455383,262.527771 
z"/>
<path fill="#F7F6F6" opacity="1.000000" stroke="none" 
	d="
M274.536194,293.502045 
	C274.415680,293.170074 274.493500,292.704712 274.776001,292.091064 
	C274.898621,292.418060 274.816559,292.893372 274.536194,293.502045 
z"/>
<path fill="#010101" opacity="1.000000" stroke="none" 
	d="
M206.034195,357.211029 
	C198.357117,356.781982 195.411514,346.880219 198.025650,339.423462 
	C200.245178,333.092316 206.273392,330.689819 212.512344,334.098480 
	C214.751266,335.321716 216.147537,338.087219 218.048035,340.758240 
	C219.454941,352.899353 213.847824,357.392303 206.034195,357.211029 
z"/>
<path fill="#DEDCDD" opacity="1.000000" stroke="none" 
	d="
M206.131027,357.558411 
	C213.847824,357.392303 219.454941,352.899353 218.232025,340.974670 
	C220.899551,344.247589 220.754227,351.109009 217.728592,354.623871 
	C214.684784,358.159821 210.969910,360.002502 206.131027,357.558411 
z"/>
<path fill="#C9CCCF" opacity="1.000000" stroke="none" 
	d="
M194.348663,353.144836 
	C194.650909,353.035370 194.984772,353.125061 195.318634,353.214722 
	C195.005844,353.257812 194.693054,353.300903 194.348663,353.144836 
z"/>
<path fill="#010101" opacity="1.000000" stroke="none" 
	d="
M259.016357,341.107269 
	C257.938660,341.042145 256.860992,340.977020 254.990967,340.938416 
	C253.138153,341.030518 252.077667,341.096100 251.017166,341.161713 
	C249.062134,341.161713 247.107086,341.161713 245.118378,341.161713 
	C245.935989,335.199707 248.755676,332.491455 253.937622,332.463379 
	C259.520782,332.433136 262.876251,335.317505 262.887817,340.845825 
	C261.142181,341.000946 260.079285,341.054108 259.016357,341.107269 
z"/>
<path fill="#C9CCCF" opacity="1.000000" stroke="none" 
	d="
M251.087677,341.490845 
	C252.077667,341.096100 253.138153,341.030518 254.593628,341.026245 
	C253.711792,341.331696 252.434998,341.575836 251.087677,341.490845 
z"/>
<path fill="#C9CCCF" opacity="1.000000" stroke="none" 
	d="
M259.074951,341.440735 
	C260.079285,341.054108 261.142181,341.000946 262.595154,341.037140 
	C261.701294,341.342407 260.417450,341.558319 259.074951,341.440735 
z"/>
<path fill="#D5D8DA" opacity="1.000000" stroke="none" 
	d="
M297.347687,354.286865 
	C297.363861,354.014832 297.510742,353.865479 297.657593,353.716095 
	C297.597839,353.947235 297.538116,354.178406 297.347687,354.286865 
z"/>
</svg>